# File produced by Open Asset Import Library (http://www.assimp.sf.net)
# (assimp v3.1.193236683)

mtllib monolith_02.mtl

# 110 vertex positions
v  42.9722 -157.238 131.422
v  105.386 -121.24 105.418
v  124.405 -77.1917 118.016
v  48.5294 -103.082 146.908
v  97.2721 115.841 101.415
v  100 372.477 45.2197
v  17.8978 411.428 100.513
v  33.4799 143.544 141.484
v  -123.934 148.129 -65.2838
v  -101.992 335.603 -54.6274
v  -100 208.458 -100
v  -38.4834 51.6964 -179.457
v  102.027 335.603 -54.6274
v  100 208.458 -100
v  39.9177 247.896 -120.968
v  40.2189 404.229 -65.4674
v  107.537 32.029 111.974
v  130.667 138.546 48.2852
v  -44.5063 404.229 -65.4674
v  -43.5576 247.896 -120.968
v  122.574 148.064 -65.296
v  120.123 68.5145 -154.01
v  106.74 391.171 21.3306
v  36.5961 464.147 20.6775
v  130.937 158.915 -31.7596
v  106.74 371.26 -28.3534
v  103.283 -171.318 -137.653
v  42.1588 -218.734 -167.232
v  81.8615 -55.7937 -207.025
v  120.123 -58.3469 -154.01
v  -106.375 -223.665 -28.5625
v  -102.335 -221.345 -54.805
v  -44.0447 -280.092 -65.6856
v  -45.6656 -280.283 -27.8356
v  135.569 154.75 17.6597
v  -147.794 165.723 53.4315
v  -81.4585 66.7444 119.139
v  -113.011 157.789 124.436
v  -79.8592 329.175 94.2786
v  -46.3086 453.374 -27.2803
v  -106.217 371.056 -28.5942
v  -158.45 175.47 19.1371
v  -101.497 381.025 18.3924
v  -106.328 -205.264 19.9573
v  -100.225 -177.749 45.328
v  -149.327 -18.3862 54.3927
v  -159.26 -23.2863 19.5429
v  -67.002 396.222 117.742
v  -51.0575 462.345 20.6598
v  81.686 62.8959 -207.079
v  -45.5934 -261.806 20.8825
v  -43.0109 -226.636 57.5964
v  -0.474511 -280.092 -65.6856
v  -0.174003 -280.308 -27.9012
v  41.7641 453.422 -27.2238
v  -125.348 -28.3342 -65.2837
v  -149.597 -26.169 -27.2754
v  -149.125 168.925 -26.9276
v  -105.312 -120.995 105.464
v  -119.88 -63.82 120.548
v  45.3176 -280.33 -27.9575
v  43.0957 -280.092 -65.6856
v  102.369 -221.345 -54.805
v  106.9 -223.761 -28.808
v  100.225 -177.749 45.328
v  106.854 -205.055 20.523
v  131.934 -34.6544 19.335
v  126.515 -36.8909 50.8886
v  122.554 -28.3342 -65.2837
v  -41.5745 72.0647 145.621
v  -54.5809 172.618 152.836
v  1.06703 -41.6149 -218.597
v  -38.4834 -27.166 -179.457
v  0.991734 55.2834 -218.597
v  -103.283 -171.318 -137.653
v  42.5698 -226.636 57.5964
v  44.7198 57.3001 142.301
v  -42.818 -157.14 131.441
v  -37.1572 -98.5964 147.757
v  45.4537 -261.705 21.1564
v  129.131 -29.7817 -30.2042
v  -43.3053 -218.734 -167.232
v  0.841747 67.2464 143.878
v  5.19 -101.768 147.157
v  0.0771046 -157.189 131.431
v  42.3147 57.513 -215.223
v  42.3882 -45.7678 -215.208
v  -0.573227 -218.734 -167.232
v  -2.14371 404.229 -65.4674
v  -2.27305 453.514 -27.1142
v  -6.97983 462.884 20.505
v  -24.2418 400.676 112.696
v  -1.81994 247.896 -120.968
v  -0.0700159 -261.766 20.9902
v  -0.220585 -226.636 57.5964
v  -10.4903 154.074 148.001
v  130.198 -30.1962 -5.7538
v  106.877 -214.408 -4.14252
v  -156.568 -23.6721 -4.43056
v  -106.352 -214.465 -4.30262
v  106.74 385.339 -4.05298
v  133.015 159.935 -7.46727
v  -104.834 382.308 -4.98409
v  -156.077 174.742 -4.51982
v  -3.71501 464.374 -3.57526
v  -47.7217 464.175 -3.57854
v  40.1452 464.716 -3.55681
v  -0.12201 -271.037 -3.45551
v  45.3857 -271.017 -3.40054
v  -45.6295 -271.044 -3.47655

# 171 UV coordinates
vt 0.701728 0.0919571 0
vt 0.766062 0.12397 0
vt 0.777799 0.164041 0
vt 0.701349 0.142716 0
vt 0.768707 0.355198 0
vt 0.803711 0.609092 0
vt 0.712686 0.648928 0
vt 0.699159 0.383918 0
vt 0.0825808 0.316925 0
vt 0.0880951 0.132112 0
vt 0.122038 0.258517 0
vt 0.216209 0.411582 0
vt 0.53203 0.12741 0
vt 0.470872 0.243045 0
vt 0.437732 0.192766 0
vt 0.511874 0.0501847 0
vt 0.769936 0.272033 0
vt 0.820313 0.379115 0
vt 0.130345 0.0618336 0
vt 0.170974 0.217347 0
vt 0.498054 0.30885 0
vt 0.408414 0.373524 0
vt 0.820313 0.628777 0
vt 0.764674 0.705563 0
vt 0.53136 0.304017 0
vt 0.56216 0.0973472 0
vt 0.374302 0.602127 0
vt 0.318411 0.633672 0
vt 0.327854 0.479491 0
vt 0.386369 0.49485 0
vt 0.508202 0.86472 0
vt 0.50441 0.890253 0
vt 0.449701 0.903758 0
vt 0.451222 0.866777 0
vt 0.595307 0.333376 0
vt 0.574082 0.314895 0
vt 0.607571 0.0844642 0
vt 0.621994 0.104187 0
vt 0.872384 0.416328 0
vt 0.957029 0.31752 0
vt 0.944604 0.406186 0
vt 0.946023 0.575043 0
vt 0.10167 0.0118251 0
vt 0.0667569 0.0963315 0
vt 0.841243 0.427043 0
vt 0.878977 0.628374 0
vt 0.863274 0.0549963 0
vt 0.886099 0.0810166 0
vt 0.867788 0.236256 0
vt 0.836313 0.232672 0
vt 0.972353 0.639823 0
vt 0.912132 0.70808 0
vt 0.348369 0.365944 0
vt 0.89818 0 0
vt 0.927438 0.0330754 0
vt 0.408811 0.903758 0
vt 0.408529 0.866842 0
vt 0.553287 0.0081362 0
vt 0.0816366 0.488928 0
vt 0.0396441 0.486284 0
vt 0.039784 0.296177 0
vt 0.928545 0.134309 0
vt 0.932431 0.189593 0
vt 0.365835 0.866898 0
vt 0.36792 0.903758 0
vt 0.312297 0.890253 0
vt 0.308044 0.864964 0
vt 0.526553 0.630455 0
vt 0.503322 0.654594 0
vt 0.541235 0.49564 0
vt 0.565479 0.500792 0
vt 0.435223 0.66009 0
vt 0.467404 0.477549 0
vt 0.999928 0.321978 0
vt 1 0.419972 0
vt 0.268117 0.502002 0
vt 0.216165 0.488407 0
vt 0.268126 0.407613 0
vt 0.589025 0.584717 0
vt 0.614373 0.547307 0
vt 0.621994 0.439306 0
vt 0.1471 0.630942 0
vt 0.0877074 0.674704 0
vt 0.731294 0.0310913 0
vt 0.786111 0.074811 0
vt 0.705361 0.299165 0
vt 0.983327 0.0983594 0
vt 1 0.155045 0
vt 0.393839 0.705097 0
vt 0.748423 0 0
vt 0.801536 0.049921 0
vt 0.458435 0.666376 0
vt 0.499212 0.484373 0
vt 0.204331 0.674642 0
vt 0.668541 0.312357 0
vt 0.632698 0.320432 0
vt 0.629936 0.154168 0
vt 0.665277 0.147597 0
vt 0.630449 0.099231 0
vt 0.666088 0.0955941 0
vt 0.325951 0.363554 0
vt 0.308044 0.462343 0
vt 0.290393 0.402318 0
vt 0.290368 0.502924 0
vt 0.308044 0.509415 0
vt 0.255429 0.668597 0
vt 0.22988 0.67162 0
vt 0.555108 0.705097 0
vt 0.594566 0.710129 0
vt 0.591527 0.743995 0
vt 0.550491 0.738916 0
vt 0.54935 0.784975 0
vt 0.590391 0.790397 0
vt 0.594566 0.890857 0
vt 0.555286 0.880585 0
vt 0.508733 0.77988 0
vt 0.517358 0.863044 0
vt 0.195928 0.214395 0
vt 0.155673 0.0588373 0
vt 0.220883 0.211442 0
vt 0.181001 0.0558408 0
vt 0.127879 0.0085637 0
vt 0.154287 0.00554567 0
vt 0.408432 0.818154 0
vt 0.365708 0.817989 0
vt 0.368418 0.780662 0
vt 0.408576 0.780662 0
vt 0.451156 0.818261 0
vt 0.448735 0.780662 0
vt 0.408909 1 0
vt 0.368805 1 0
vt 0.449012 1 0
vt 0.308044 0.393807 0
vt 0.368045 0.70512 0
vt 0.408302 0.705108 0
vt 0.448559 0.705097 0
vt 0.660131 0.39725 0
vt 0.621994 0.418521 0
vt 0.672026 0.640944 0
vt 0.634161 0.639756 0
vt 0.130396 0.728455 0
vt 0.520181 0.487978 0
vt 0.480879 0.660485 0
vt 0.0189515 0.482992 0
vt 0.0663064 0.675696 0
vt 0.0487761 0.665295 0
vt 0.820313 0.233177 0
vt 0.845262 0.0468776 0
vt 0.585125 0.0868947 0
vt 0.552819 0.306398 0
vt 0.0505101 0.0838746 0
vt 0.0194207 0.289675 0
vt 0.859922 0.630456 0
vt 0.82528 0.4272 0
vt 0.00088938 0.287732 0
vt 0 0.481387 0
vt 0.54906 0.761154 0
vt 0.590051 0.766392 0
vt 0.508202 0.755939 0
vt 0.509486 0.733585 0
vt 0.40848 0.842498 0
vt 0.365772 0.842443 0
vt 0.451189 0.842519 0
vt 0.508159 0.816402 0
vt 0.508181 0.840561 0
vt 0.308067 0.840401 0
vt 0.308089 0.815839 0
vt 0.574633 0 0
vt 0.59368 0.00296087 0
vt 0.896368 0.710764 0
vt 0.0836858 0 0

# 110 vertex normals
vn 0.270802 -0.533791 0.801083
vn 0.785138 -0.404166 0.469264
vn 0.816567 -0.130865 0.562221
vn 0.241375 -0.159889 0.957169
vn 0.686957 0.136238 0.713814
vn 0.779556 0.289537 0.555392
vn 0.314836 0.543822 0.777905
vn 0.354358 0.104009 0.929308
vn -0.839333 0.0436116 -0.541865
vn -0.697971 0.253461 -0.669772
vn -0.721303 0.146037 -0.677049
vn -0.716408 0.0766641 -0.693457
vn 0.760161 0.260752 -0.595116
vn 0.786499 0.287792 -0.546439
vn 0.278881 0.377823 -0.882879
vn 0.285507 0.469233 -0.835647
vn 0.749365 0.0826152 0.656983
vn 0.92983 0.0731547 0.360646
vn -0.300828 0.466701 -0.831681
vn -0.293413 0.333668 -0.895865
vn 0.966828 0.0874994 -0.239975
vn 0.90233 0.147591 -0.40499
vn 0.861312 0.458642 0.218609
vn 0.353747 0.889022 0.290694
vn 0.983997 0.0586577 -0.168252
vn 0.855705 0.355033 -0.376458
vn 0.860674 -0.33498 -0.383444
vn 0.346275 -0.593483 -0.726548
vn 0.483248 -0.15153 -0.862271
vn 0.926013 -0.115668 -0.359333
vn -0.85542 -0.513881 -0.0646699
vn -0.835788 -0.443896 -0.323133
vn -0.354571 -0.895308 -0.269636
vn -0.361958 -0.921771 0.139015
vn 0.994943 0.0574364 0.0824007
vn -0.903822 0.098302 0.416463
vn -0.598786 0.0117805 0.800822
vn -0.754373 0.0131539 0.656315
vn -0.827449 0.221176 0.516148
vn -0.385363 0.733187 -0.560297
vn -0.823269 0.374446 -0.426635
vn -0.976957 0.143258 0.158213
vn -0.915654 0.364821 0.168769
vn -0.807031 -0.484927 0.336967
vn -0.758103 -0.446042 0.475737
vn -0.896477 -0.0767257 0.436397
vn -0.979608 -0.139809 0.144295
vn -0.438318 0.482296 0.758464
vn -0.47729 0.833052 0.279678
vn 0.468259 0.22447 -0.854603
vn -0.326767 -0.799933 0.503319
vn -0.296519 -0.677849 0.672753
vn -0.000122075 -0.962534 -0.27116
vn -0.000122074 -0.984132 0.177435
vn 0.372367 0.732984 -0.569278
vn -0.873276 -0.0270401 -0.486476
vn -0.937881 -0.102117 -0.331589
vn -0.914868 0.0979964 -0.391681
vn -0.738257 -0.385426 0.553555
vn -0.72117 -0.125251 0.681342
vn 0.36016 -0.923091 0.134865
vn 0.349141 -0.896321 -0.273331
vn 0.863302 -0.460934 -0.205548
vn 0.877505 -0.47948 0.00918621
vn 0.809673 -0.40679 0.423026
vn 0.840539 -0.43469 0.323324
vn 0.992979 -0.0854543 0.081792
vn 0.978618 -0.0701934 0.193337
vn 0.992294 -0.0536829 -0.111669
vn -0.189067 -0.0411093 0.981103
vn -0.261304 0.0491054 0.964007
vn -0.282483 -0.0926861 -0.954784
vn -0.744183 -9.16667e-05 -0.667976
vn -0.288708 0.187019 -0.938974
vn -0.812852 -0.177836 -0.554658
vn 0.292254 -0.677257 0.675212
vn 0.276141 0.0596965 0.959261
vn -0.280135 -0.516903 0.80891
vn -0.200296 -0.135718 0.97029
vn 0.324426 -0.799588 0.505378
vn 0.991307 -0.0632652 -0.11536
vn -0.360988 -0.551645 -0.751915
vn 0.0536525 -0.00357057 0.998553
vn 0.0119938 -0.129155 0.991552
vn -0.0014344 -0.519039 0.854749
vn 0.0988197 0.222878 -0.969825
vn 0.100287 -0.13096 -0.986302
vn 0.0221265 -0.60709 -0.794325
vn 3.05193e-05 0.480374 -0.877064
vn -0.00140388 0.782814 -0.622254
vn -0.0214241 0.948734 0.315349
vn 0.090063 0.518129 0.850547
vn 0.0199594 0.392352 -0.919598
vn -0.000335709 -0.845316 0.534266
vn -0.000488311 -0.724928 0.688824
vn 0.124607 0.0547505 0.990694
vn 0.996632 -0.0685459 -0.0450157
vn 0.883584 -0.447011 0.139502
vn -0.98454 -0.121374 -0.126287
vn -0.857986 -0.500942 0.113654
vn 0.899643 0.416159 -0.132117
vn 0.995974 0.0563983 -0.069674
vn -0.896399 0.429827 -0.10825
vn -0.981762 0.12763 -0.140906
vn -0.00854518 0.981781 -0.189825
vn -0.427853 0.89059 -0.154246
vn 0.394984 0.898159 -0.193128
vn 0 -0.935017 0.354603
vn 0.349111 -0.876302 0.33199
vn -0.351922 -0.875059 0.332298

# Mesh 'Cube_Cube' with 216 faces
g Cube_Cube
usemtl Material
f  1/1/1 2/2/2 3/3/3
f  3/3/3 4/4/4 1/1/1
f  5/5/5 6/6/6 7/7/7
f  7/7/7 8/8/8 5/5/5
f  9/9/9 10/10/10 11/11/11
f  9/9/9 11/11/11 12/12/12
f  13/13/13 14/14/14 15/15/15
f  15/15/15 16/16/16 13/13/13
f  17/17/17 18/18/18 6/6/6
f  6/6/6 5/5/5 17/17/17
f  19/19/19 20/20/20 11/11/11
f  11/11/11 10/10/10 19/19/19
f  21/21/21 22/22/22 14/14/14
f  14/14/14 13/13/13 21/21/21
f  6/6/6 23/23/23 24/24/24
f  24/24/24 7/7/7 6/6/6
f  25/25/25 21/21/21 13/13/13
f  13/13/13 26/26/26 25/25/25
f  27/27/27 28/28/28 29/29/29
f  29/29/29 30/30/30 27/27/27
f  31/31/31 32/32/32 33/33/33
f  33/33/33 34/34/34 31/31/31
f  18/35/18 35/36/35 23/37/23
f  23/37/23 6/38/6 18/35/18
f  36/39/36 37/40/37 38/41/38
f  38/41/38 39/42/39 36/39/36
f  40/43/40 19/19/19 10/10/10
f  10/10/10 41/44/41 40/43/40
f  42/45/42 36/39/36 39/42/39
f  39/42/39 43/46/43 42/45/42
f  44/47/44 45/48/45 46/49/46
f  46/49/46 47/50/47 44/47/44
f  48/51/48 49/52/49 43/46/43
f  43/46/43 39/42/39 48/51/48
f  30/30/30 29/29/29 50/53/50
f  50/53/50 22/22/22 30/30/30
f  45/48/45 44/47/44 51/54/51
f  51/54/51 52/55/52 45/48/45
f  33/33/33 53/56/53 54/57/54
f  54/57/54 34/34/34 33/33/33
f  26/26/26 13/13/13 16/16/16
f  16/16/16 55/58/55 26/26/26
f  56/59/56 57/60/57 58/61/58
f  58/61/58 9/9/9 56/59/56
f  45/48/45 59/62/59 60/63/60
f  60/63/60 46/49/46 45/48/45
f  46/49/46 60/63/60 37/40/37
f  37/40/37 36/39/36 46/49/46
f  61/64/61 62/65/62 63/66/63
f  63/66/63 64/67/64 61/64/61
f  47/50/47 46/49/46 36/39/36
f  36/39/36 42/45/42 47/50/47
f  65/68/65 66/69/66 67/70/67
f  67/70/67 68/71/68 65/68/65
f  68/71/68 67/70/67 35/36/35
f  35/36/35 18/35/18 68/71/68
f  63/72/63 27/27/27 30/30/30
f  30/30/30 69/73/69 63/72/63
f  69/73/69 30/30/30 22/22/22
f  22/22/22 21/21/21 69/73/69
f  37/40/37 70/74/70 71/75/71
f  71/75/71 38/41/38 37/40/37
f  72/76/72 73/77/73 12/12/12
f  12/12/12 74/78/74 72/76/72
f  2/79/2 65/68/65 68/71/68
f  68/71/68 3/80/3 2/79/2
f  3/80/3 68/71/68 18/35/18
f  18/35/18 17/81/17 3/80/3
f  75/82/75 32/83/32 56/59/56
f  56/59/56 73/77/73 75/82/75
f  73/77/73 56/59/56 9/9/9
f  9/9/9 12/12/12 73/77/73
f  1/1/1 76/84/76 65/85/65
f  65/85/65 2/2/2 1/1/1
f  4/4/4 3/3/3 17/17/17
f  17/17/17 77/86/77 4/4/4
f  59/62/59 45/48/45 52/55/52
f  52/55/52 78/87/78 59/62/59
f  60/63/60 79/88/79 70/74/70
f  70/74/70 37/40/37 60/63/60
f  62/89/62 28/28/28 27/27/27
f  27/27/27 63/72/63 62/89/62
f  9/9/9 58/61/58 41/44/41
f  41/44/41 10/10/10 9/9/9
f  76/84/76 80/90/80 66/91/66
f  66/91/66 65/85/65 76/84/76
f  74/78/74 12/12/12 11/11/11
f  11/11/11 20/20/20 74/78/74
f  64/92/64 63/72/63 69/73/69
f  69/73/69 81/93/81 64/92/64
f  81/93/81 69/73/69 21/21/21
f  21/21/21 25/25/25 81/93/81
f  82/94/82 75/82/75 73/77/73
f  73/77/73 72/76/72 82/94/82
f  22/22/22 50/53/50 15/15/15
f  15/15/15 14/14/14 22/22/22
f  59/62/59 78/87/78 79/88/79
f  79/88/79 60/63/60 59/62/59
f  71/75/71 48/51/48 39/42/39
f  39/42/39 38/41/38 71/75/71
f  77/86/77 17/17/17 5/5/5
f  5/5/5 8/8/8 77/86/77
f  83/95/83 70/96/70 79/97/79
f  79/97/79 84/98/84 83/95/83
f  77/86/77 83/95/83 84/98/84
f  84/98/84 4/4/4 77/86/77
f  84/98/84 79/97/79 78/99/78
f  78/99/78 85/100/85 84/98/84
f  4/4/4 84/98/84 85/100/85
f  85/100/85 1/1/1 4/4/4
f  86/101/86 50/53/50 29/29/29
f  29/29/29 87/102/87 86/101/86
f  74/78/74 86/103/86 87/104/87
f  87/104/87 72/76/72 74/78/74
f  87/104/87 29/105/29 28/106/28
f  28/106/28 88/107/88 87/104/87
f  72/76/72 87/104/87 88/107/88
f  88/107/88 82/94/82 72/76/72
f  89/108/89 19/109/19 40/110/40
f  40/110/40 90/111/90 89/108/89
f  91/112/91 49/113/49 48/114/48
f  48/114/48 92/115/92 91/112/91
f  24/116/24 91/112/91 92/115/92
f  92/115/92 7/117/7 24/116/24
f  93/118/93 20/20/20 19/19/19
f  19/19/19 89/119/89 93/118/93
f  15/120/15 93/118/93 89/119/89
f  89/119/89 16/121/16 15/120/15
f  16/121/16 89/119/89 90/122/90
f  90/122/90 55/123/55 16/121/16
f  53/56/53 62/65/62 61/64/61
f  61/64/61 54/57/54 53/56/53
f  94/124/94 80/125/80 76/126/76
f  76/126/76 95/127/95 94/124/94
f  51/128/51 94/124/94 95/127/95
f  95/127/95 52/129/52 51/128/51
f  88/130/88 28/131/28 62/65/62
f  62/65/62 53/56/53 88/130/88
f  82/132/82 88/130/88 53/56/53
f  53/56/53 33/33/33 82/132/82
f  93/118/93 15/120/15 50/133/50
f  50/133/50 86/103/86 93/118/93
f  20/20/20 93/118/93 86/103/86
f  86/103/86 74/78/74 20/20/20
f  95/127/95 76/126/76 1/134/1
f  1/134/1 85/135/85 95/127/95
f  52/129/52 95/127/95 85/135/85
f  85/135/85 78/136/78 52/129/52
f  96/137/96 71/138/71 70/96/70
f  70/96/70 83/95/83 96/137/96
f  8/8/8 96/137/96 83/95/83
f  83/95/83 77/86/77 8/8/8
f  92/139/92 48/140/48 71/138/71
f  71/138/71 96/137/96 92/139/92
f  7/7/7 92/139/92 96/137/96
f  96/137/96 8/8/8 7/7/7
f  32/83/32 75/82/75 82/94/82
f  82/94/82 33/141/33 32/83/32
f  97/142/97 67/70/67 66/69/66
f  66/69/66 98/143/98 97/142/97
f  81/93/81 97/142/97 98/143/98
f  98/143/98 64/92/64 81/93/81
f  99/144/99 57/60/57 31/145/31
f  31/145/31 100/146/100 99/144/99
f  47/50/47 99/147/99 100/148/100
f  100/148/100 44/47/44 47/50/47
f  101/149/101 23/37/23 35/36/35
f  35/36/35 102/150/102 101/149/101
f  26/26/26 101/149/101 102/150/102
f  102/150/102 25/25/25 26/26/26
f  102/150/102 35/36/35 67/70/67
f  67/70/67 97/142/97 102/150/102
f  25/25/25 102/150/102 97/142/97
f  97/142/97 81/93/81 25/25/25
f  103/151/103 41/44/41 58/61/58
f  58/61/58 104/152/104 103/151/103
f  43/46/43 103/153/103 104/154/104
f  104/154/104 42/45/42 43/46/43
f  104/152/104 58/61/58 57/60/57
f  57/60/57 99/144/99 104/152/104
f  42/155/42 104/152/104 99/144/99
f  99/144/99 47/156/47 42/155/42
f  105/157/105 90/111/90 40/110/40
f  40/110/40 106/158/106 105/157/105
f  91/112/91 105/157/105 106/158/106
f  106/158/106 49/113/49 91/112/91
f  107/159/107 55/160/55 90/111/90
f  90/111/90 105/157/105 107/159/107
f  24/116/24 107/159/107 105/157/105
f  105/157/105 91/112/91 24/116/24
f  108/161/108 54/57/54 61/64/61
f  61/64/61 109/162/109 108/161/108
f  94/124/94 108/161/108 109/162/109
f  109/162/109 80/125/80 94/124/94
f  110/163/110 34/34/34 54/57/54
f  54/57/54 108/161/108 110/163/110
f  51/128/51 110/163/110 108/161/108
f  108/161/108 94/124/94 51/128/51
f  110/163/110 51/128/51 44/164/44
f  44/164/44 100/165/100 110/163/110
f  34/34/34 110/163/110 100/165/100
f  100/165/100 31/31/31 34/34/34
f  98/166/98 66/167/66 80/125/80
f  80/125/80 109/162/109 98/166/98
f  64/67/64 98/166/98 109/162/109
f  109/162/109 61/64/61 64/67/64
f  107/168/107 24/169/24 23/37/23
f  23/37/23 101/149/101 107/168/107
f  55/58/55 107/168/107 101/149/101
f  101/149/101 26/26/26 55/58/55
f  103/153/103 43/46/43 49/52/49
f  49/52/49 106/170/106 103/153/103
f  41/44/41 103/151/103 106/171/106
f  106/171/106 40/43/40 41/44/41
f  32/83/32 31/145/31 57/60/57
f  57/60/57 56/59/56 32/83/32

