# File produced by Open Asset Import Library (http://www.assimp.sf.net)
# (assimp v3.1.193236683)

mtllib monolith_06.mtl

# 82 vertex positions
v  -37.7304 170.619 153.071
v  -37.7304 198.735 37.4431
v  -137.097 128.116 41.4893
v  -113.191 123.862 103.672
v  -113.191 67.266 103.672
v  -37.7304 67.266 184.24
v  -100 50 -133.218
v  -100 50 -58.5106
v  -100 100 -58.5107
v  -100 100 -100
v  7.89676 -113.145 100
v  33.3333 -127.915 41.4894
v  100 -127.915 41.4894
v  74.5634 -113.145 100
v  113.191 67.266 134.841
v  100 52.838 54.4113
v  100 100 41.4893
v  113.191 123.862 103.672
v  100 52.838 -152.427
v  33.3333 50 -135.902
v  33.3333 100 -135.902
v  100 113.244 -116.525
v  153.535 52.838 -66.4007
v  100 113.244 -66.4007
v  153.535 52.838 -5.9947
v  100 113.244 -5.99471
v  33.3333 -127.915 -58.5106
v  33.3333 -100 -133.218
v  100 -100 -100
v  100 -100 -58.5106
v  33.3333 -127.915 -8.51062
v  100 -127.915 -8.51062
v  -137.097 50 41.4894
v  -137.097 50 -8.51065
v  -137.097 128.116 -8.51066
v  -33.3333 128.115 -58.5107
v  -33.3333 100 -135.902
v  -37.7304 151.977 -19.1526
v  -100 -127.915 -58.5106
v  -100 -100 -8.51062
v  -137.097 -50 -8.51063
v  -137.097 -50 -58.5106
v  -137.097 0 -8.51064
v  -137.097 -1.14441e-05 -58.5106
v  -100 -100 41.4894
v  -100 -50 41.4894
v  -100 7.62939e-06 41.4894
v  -100 -100 100
v  -125.437 -63.1446 100
v  -125.437 -13.1446 100
v  100 -67.9739 -5.99468
v  100 -67.9739 54.4113
v  153.535 -7.56797 -5.99469
v  100 -7.56796 54.4113
v  100 -50 -58.5106
v  153.535 -1.14441e-05 -58.5106
v  100 -50 -100
v  100 -2.28882e-05 -135.902
v  33.3333 -50 -169.121
v  33.3333 -2.28882e-05 -135.902
v  74.5634 -63.1446 100
v  100 2.28882e-05 131.169
v  -100 -127.915 -100
v  -100 -50 -100
v  -100 -2.28882e-05 -133.218
v  -33.3333 -100 100
v  -58.7699 -63.1446 100
v  -58.7699 -13.1446 131.169
v  33.3333 2.28882e-05 131.169
v  37.7304 67.266 184.24
v  7.89676 -63.1446 100
v  -33.3333 -2.67029e-05 -169.121
v  -33.3333 50 -169.121
v  -33.3333 -50 -169.121
v  -33.3333 -127.915 -133.218
v  37.7304 151.977 -19.1526
v  37.7304 170.619 37.4431
v  33.3333 128.115 -58.5107
v  -33.3333 -127.915 -8.51062
v  -33.3333 -100 41.4894
v  -33.3333 -127.915 -58.5106
v  37.7304 170.619 153.071

# 152 UV coordinates
vt 0.918881 0.416614 0
vt 0.915538 0.579601 0
vt 0.757211 0.547981 0
vt 0.792763 0.464373 0
vt 0.299219 0.599752 0
vt 0.196881 0.560575 0
vt 0.2103 0.437124 0
vt 0.305935 0.525567 0
vt 0.624307 0.62901 0
vt 0.6078 0.55867 0
vt 0.672988 0.551406 0
vt 0.682156 0.590469 0
vt 0.00725559 0.155907 0
vt 0.0737438 0.163643 0
vt 0.0664882 0.236109 0
vt 0 0.228373 0
vt 0.574612 0.304476 0
vt 0.59714 0.223251 0
vt 0.661069 0.224655 0
vt 0.658779 0.289257 0
vt 0.628474 0.843753 0
vt 0.622382 0.762917 0
vt 0.687571 0.755652 0
vt 0.699297 0.801173 0
vt 0.646738 0.0511241 0
vt 0.695541 0 0
vt 0.752468 0.0584136 0
vt 0.728622 0.112515 0
vt 0.618 0.116323 0
vt 0.699884 0.177714 0
vt 0.200882 0.150418 0
vt 0.305564 0.163549 0
vt 0.256075 0.240408 0
vt 0.203326 0.245895 0
vt 0.137313 0.157031 0
vt 0.130057 0.229497 0
vt 0.699297 0.518908 0
vt 0.750804 0.44331 0
vt 0.597452 0.47504 0
vt 0.586404 0.427964 0
vt 0.69071 0.422151 0
vt 0.699297 0.46369 0
vt 0.847837 0.679889 0
vt 0.810803 0.771511 0
vt 0.746648 0.724153 0
vt 0.755327 0.669425 0
vt 0.869034 0.636853 0
vt 0.746752 0.613935 0
vt 0.375839 0.584521 0
vt 0.401186 0.533388 0
vt 0.467075 0.48957 0
vt 0.478123 0.536646 0
vt 0.532264 0.482305 0
vt 0.543312 0.529382 0
vt 0.803008 0.155989 0
vt 0.818421 0.16697 0
vt 0.862903 0.21396 0
vt 0.813038 0.239081 0
vt 0.907386 0.26095 0
vt 0.85752 0.286071 0
vt 0.917415 0.344042 0
vt 0.902002 0.333061 0
vt 0.777526 0.992568 0
vt 0.723291 1 0
vt 0.699297 0.94674 0
vt 0.777526 0.92462 0
vt 0.699297 0.878792 0
vt 0.777526 0.856672 0
vt 0.707444 0.771511 0
vt 0.742532 0.784093 0
vt 0.381836 0.150467 0
vt 0.405623 0.0964997 0
vt 0.477863 0.118727 0
vt 0.449126 0.183926 0
vt 0.543993 0.0966606 0
vt 0.523133 0.203588 0
vt 0.46361 0.0516189 0
vt 0.524868 0.0678942 0
vt 0.147687 0.279239 0
vt 0.220701 0.28711 0
vt 0.232249 0.386517 0
vt 0.162851 0.387223 0
vt 0.578249 0.0424411 0
vt 0.483348 0.00683745 0
vt 0.544606 0.0231127 0
vt 0.273449 0.281623 0
vt 0.336469 0.31809 0
vt 0.375839 0.359459 0
vt 0.26064 0.429028 0
vt 0.368584 0.200016 0
vt 0.343725 0.245624 0
vt 0.555935 0.835871 0
vt 0.557194 0.770182 0
vt 0.375839 0.238255 0
vt 0.437097 0.25453 0
vt 0.495888 0.2889 0
vt 0.385007 0.623584 0
vt 0.48659 0.612264 0
vt 0.559119 0.636275 0
vt 0.262137 0.819004 0
vt 0.174361 0.811851 0
vt 0.212226 0.76627 0
vt 0.300002 0.773423 0
vt 0.217005 0.688707 0
vt 0.305935 0.707883 0
vt 0.0972978 0.661595 0
vt 0.0095218 0.654442 0
vt 0 0.563439 0
vt 0.0975256 0.552478 0
vt 0.12445 0.759117 0
vt 0.0366734 0.751964 0
vt 0.118516 0.824657 0
vt 0.0307399 0.817504 0
vt 0.565793 0.735768 0
vt 0.630981 0.728503 0
vt 0.342462 0.453316 0
vt 0.342462 0.545716 0
vt 0.305935 0.521427 0
vt 0.305935 0.429028 0
vt 0.500604 0.743033 0
vt 0.499345 0.808722 0
vt 0.391088 0.72055 0
vt 0.303119 0.0680729 0
vt 0.375839 0.12755 0
vt 0.762761 0.224656 0
vt 0.758676 0.291811 0
vt 0.975813 0.569137 0
vt 0.950153 0.636853 0
vt 0.752898 0.177836 0
vt 0.919502 0.679889 0
vt 0.978491 0.684762 0
vt 0.968006 0.75088 0
vt 0.882469 0.771511 0
vt 0.840088 0.0648773 0
vt 0.880336 0.102093 0
vt 0.902002 0 0
vt 0.917415 0.0109808 0
vt 0.762761 0.118774 0
vt 0.824675 0.0538965 0
vt 0.144568 0.0845648 0
vt 0.208137 0.0779526 0
vt 0.215393 0.00548672 0
vt 0.268142 0 0
vt 0.68883 0.689962 0
vt 0.023566 0.0494594 0
vt 0.0979552 0.0417217 0
vt 0.0906996 0.114188 0
vt 0.0163104 0.121925 0
vt 0.562214 0.416614 0
vt 0.703667 0.416614 0
vt 0.110945 0.429028 0
vt 1 0.416614 0

# 82 vertex normals
vn -0.285691 0.702919 0.651372
vn -0.17512 0.976039 -0.129158
vn -0.882874 0.46631 0.0555763
vn -0.786327 0.390493 0.478754
vn -0.847801 -0.0437649 0.528506
vn -0.290605 -0.111365 0.95034
vn -0.74954 0.279368 -0.60012
vn -0.940534 0.163704 -0.297652
vn -0.720039 0.516965 -0.462915
vn -0.73464 0.592448 -0.33062
vn -0.161144 -0.677997 0.717184
vn -0.11524 -0.981337 0.153938
vn 0.698283 -0.687662 0.198803
vn 0.418238 -0.52179 0.743514
vn 0.864467 -0.0553319 0.499636
vn 0.974422 0.0546907 0.217969
vn 0.862248 0.502187 0.0658595
vn 0.881655 0.44304 0.162482
vn 0.417203 0.133493 -0.898956
vn 0.141088 0.116917 -0.983069
vn 0.0681495 0.685676 -0.72471
vn 0.413417 0.738663 -0.532413
vn 0.93411 0.259171 -0.245499
vn 0.534453 0.81874 -0.20982
vn 0.910981 0.291646 0.291646
vn 0.682565 0.729961 0.0355244
vn 0.162787 -0.972295 -0.167761
vn 0.330952 -0.695535 -0.637732
vn 0.723236 -0.563714 -0.398943
vn 0.832745 -0.536038 -0.138557
vn 0 -1 1.62921e-07
vn 0.690625 -0.716659 -0.0971434
vn -0.976303 -0.137824 0.166847
vn -0.986387 -2.67904e-08 -0.164439
vn -0.769352 0.483389 -0.417652
vn -0.134774 0.891597 -0.432309
vn -0.125466 0.728683 -0.67326
vn -0.145913 0.852192 -0.502471
vn -0.560358 -0.828162 -0.0121159
vn -0.626309 -0.732088 0.267926
vn -0.937558 -0.21034 0.277025
vn -0.951122 -0.235698 -0.199533
vn -0.986387 2.67904e-08 0.164439
vn -0.95072 0.118657 -0.286449
vn -0.617105 -0.779194 0.109718
vn -0.984609 -0.157693 0.0753518
vn -0.979833 -0.131173 0.150736
vn -0.477622 -0.651733 0.58917
vn -0.863117 -0.249526 0.439051
vn -0.895895 -0.197643 0.397881
vn 0.965663 -0.252303 0.0619543
vn 0.942308 -0.173562 0.286239
vn 0.923674 -0.306294 0.23024
vn 0.928124 -0.193432 0.318073
vn 0.920924 -0.361014 -0.146859
vn 0.907832 -0.328786 -0.26027
vn 0.81132 -0.281905 -0.512141
vn 0.543785 -0.206033 -0.813541
vn 0.340622 -0.123083 -0.932109
vn 0.267107 0.0208752 -0.963441
vn 0.556419 -0.252146 0.791719
vn 0.708509 -0.370842 0.600409
vn -0.586737 -0.663646 -0.464018
vn -0.761389 -0.204478 -0.615203
vn -0.747051 -0.0209974 -0.664435
vn -0.119301 -0.649302 0.751115
vn -0.0456254 -0.200599 0.978611
vn -0.235792 -0.379568 0.894612
vn 0.0936041 -0.486607 0.868592
vn 0.251297 -0.105658 0.962126
vn 0.0127264 -0.242839 0.969983
vn -0.113928 0.0155646 -0.993367
vn -0.0535908 0.207862 -0.976689
vn -0.225778 -0.174049 -0.958505
vn -0.136575 -0.785937 -0.603034
vn 0.321828 0.885096 -0.336203
vn 0.414636 0.895835 -0.159861
vn 0.111212 0.934408 -0.338398
vn -0.148291 -0.968975 0.197732
vn -0.190439 -0.971605 0.140418
vn 0.000976607 -0.999771 0.021394
vn 0.383475 0.727855 0.568483

# Mesh 'Cube_Cube' with 160 faces
g Cube_Cube
usemtl Material
f  1/1/1 2/2/2 3/3/3
f  3/3/3 4/4/4 1/1/1
f  5/5/5 6/6/6 1/7/1
f  1/7/1 4/8/4 5/5/5
f  7/9/7 8/10/8 9/11/9
f  9/11/9 10/12/10 7/9/7
f  11/13/11 12/14/12 13/15/13
f  13/15/13 14/16/14 11/13/11
f  15/17/15 16/18/16 17/19/17
f  17/19/17 18/20/18 15/17/15
f  19/21/19 20/22/20 21/23/21
f  21/23/21 22/24/22 19/21/19
f  23/25/23 19/26/19 22/27/22
f  22/27/22 24/28/24 23/25/23
f  25/29/25 23/25/23 24/28/24
f  24/28/24 26/30/26 25/29/25
f  16/18/16 25/29/25 26/30/26
f  26/30/26 17/19/17 16/18/16
f  27/31/27 28/32/28 29/33/29
f  29/33/29 30/34/30 27/31/27
f  31/35/31 27/31/27 30/34/30
f  30/34/30 32/36/32 31/35/31
f  12/14/12 31/35/31 32/36/32
f  32/36/32 13/15/13 12/14/12
f  33/37/33 5/38/5 4/4/4
f  4/4/4 3/3/3 33/37/33
f  34/39/34 33/40/33 3/41/3
f  3/41/3 35/42/35 34/39/34
f  8/10/8 34/39/34 35/42/35
f  35/42/35 9/11/9 8/10/8
f  36/43/36 37/44/37 10/45/10
f  10/45/10 9/46/9 36/43/36
f  38/47/38 36/43/36 9/46/9
f  9/46/9 35/48/35 38/47/38
f  2/2/2 38/47/38 35/48/35
f  35/48/35 3/3/3 2/2/2
f  39/49/39 40/50/40 41/51/41
f  41/51/41 42/52/42 39/49/39
f  42/52/42 41/51/41 43/53/43
f  43/53/43 44/54/44 42/52/42
f  44/54/44 43/53/43 34/39/34
f  34/39/34 8/10/8 44/54/44
f  40/55/40 45/56/45 46/57/46
f  46/57/46 41/58/41 40/55/40
f  41/58/41 46/57/46 47/59/47
f  47/59/47 43/60/43 41/58/41
f  43/60/43 47/59/47 33/61/33
f  33/61/33 34/62/34 43/60/43
f  45/63/45 48/64/48 49/65/49
f  49/65/49 46/66/46 45/63/45
f  46/66/46 49/65/49 50/67/50
f  50/67/50 47/68/47 46/66/46
f  47/68/47 50/67/50 5/69/5
f  5/69/5 33/70/33 47/68/47
f  13/71/13 32/72/32 51/73/51
f  51/73/51 52/74/52 13/71/13
f  52/74/52 51/73/51 53/75/53
f  53/75/53 54/76/54 52/74/52
f  54/76/54 53/75/53 25/29/25
f  25/29/25 16/18/16 54/76/54
f  32/72/32 30/77/30 55/78/55
f  55/78/55 51/73/51 32/72/32
f  51/79/51 55/80/55 56/81/56
f  56/81/56 53/82/53 51/79/51
f  53/75/53 56/83/56 23/25/23
f  23/25/23 25/29/25 53/75/53
f  30/77/30 29/84/29 57/85/57
f  57/85/57 55/78/55 30/77/30
f  55/80/55 57/86/57 58/87/58
f  58/87/58 56/81/56 55/80/55
f  56/81/56 58/87/58 19/88/19
f  19/88/19 23/89/23 56/81/56
f  29/33/29 28/32/28 59/90/59
f  59/90/59 57/86/57 29/33/29
f  57/86/57 59/90/59 60/91/60
f  60/91/60 58/87/58 57/86/57
f  58/92/58 60/93/60 20/22/20
f  20/22/20 19/21/19 58/92/58
f  14/94/14 13/71/13 52/74/52
f  52/74/52 61/95/61 14/94/14
f  61/95/61 52/74/52 54/76/54
f  54/76/54 62/96/62 61/95/61
f  62/96/62 54/76/54 16/18/16
f  16/18/16 15/17/15 62/96/62
f  63/97/63 39/49/39 42/52/42
f  42/52/42 64/98/64 63/97/63
f  64/98/64 42/52/42 44/54/44
f  44/54/44 65/99/65 64/98/64
f  65/99/65 44/54/44 8/10/8
f  8/10/8 7/9/7 65/99/65
f  48/100/48 66/101/66 67/102/67
f  67/102/67 49/103/49 48/100/48
f  49/103/49 67/102/67 68/104/68
f  68/104/68 50/105/50 49/103/49
f  50/105/50 68/104/68 6/6/6
f  6/6/6 5/5/5 50/105/50
f  69/106/69 62/107/62 15/108/15
f  15/108/15 70/109/70 69/106/69
f  68/104/68 69/106/69 70/109/70
f  70/109/70 6/6/6 68/104/68
f  71/110/71 61/111/61 62/107/62
f  62/107/62 69/106/69 71/110/71
f  67/102/67 71/110/71 69/106/69
f  69/106/69 68/104/68 67/102/67
f  11/112/11 14/113/14 61/111/61
f  61/111/61 71/110/71 11/112/11
f  66/101/66 11/112/11 71/110/71
f  71/110/71 67/102/67 66/101/66
f  72/114/72 65/99/65 7/9/7
f  7/9/7 73/115/73 72/114/72
f  60/116/60 72/117/72 73/118/73
f  73/118/73 20/119/20 60/116/60
f  74/120/74 64/98/64 65/99/65
f  65/99/65 72/114/72 74/120/74
f  59/121/59 74/120/74 72/114/72
f  72/114/72 60/93/60 59/121/59
f  75/122/75 63/97/63 64/98/64
f  64/98/64 74/120/74 75/122/75
f  28/32/28 75/123/75 74/124/74
f  74/124/74 59/90/59 28/32/28
f  17/19/17 26/30/26 76/125/76
f  76/125/76 77/126/77 17/19/17
f  77/127/77 76/128/76 38/47/38
f  38/47/38 2/2/2 77/127/77
f  26/30/26 24/28/24 78/129/78
f  78/129/78 76/125/76 26/30/26
f  76/128/76 78/130/78 36/43/36
f  36/43/36 38/47/38 76/128/76
f  24/131/24 22/132/22 21/133/21
f  21/133/21 78/130/78 24/131/24
f  78/130/78 21/133/21 37/44/37
f  37/44/37 36/43/36 78/130/78
f  45/56/45 40/55/40 79/134/79
f  79/134/79 80/135/80 45/56/45
f  80/135/80 79/134/79 31/136/31
f  31/136/31 12/137/12 80/135/80
f  40/55/40 39/138/39 81/139/81
f  81/139/81 79/134/79 40/55/40
f  79/140/79 81/141/81 27/31/27
f  27/31/27 31/35/31 79/140/79
f  39/142/39 63/143/63 75/123/75
f  75/123/75 81/141/81 39/142/39
f  81/141/81 75/123/75 28/32/28
f  28/32/28 27/31/27 81/141/81
f  73/115/73 7/9/7 10/12/10
f  10/12/10 37/144/37 73/115/73
f  20/22/20 73/115/73 37/144/37
f  37/144/37 21/23/21 20/22/20
f  48/145/48 45/146/45 80/147/80
f  80/147/80 66/148/66 48/145/48
f  66/148/66 80/147/80 12/14/12
f  12/14/12 11/13/11 66/148/66
f  70/149/70 15/17/15 18/20/18
f  18/20/18 82/150/82 70/149/70
f  6/6/6 70/109/70 82/151/82
f  82/151/82 1/7/1 6/6/6
f  18/20/18 17/19/17 77/126/77
f  77/126/77 82/150/82 18/20/18
f  82/152/82 77/127/77 2/2/2
f  2/2/2 1/1/1 82/152/82

