# File produced by Open Asset Import Library (http://www.assimp.sf.net)
# (assimp v3.1.193236683)

mtllib monolith_05.mtl

# 112 vertex positions
v  10.2809 -255.076 108.913
v  44.1694 -239.257 100.784
v  45.1737 -171.747 102.701
v  18.9691 -172.498 121.633
v  44.0305 115.6 100.504
v  26.0912 177.149 78.2906
v  -9.54852 196.894 84.536
v  8.50549 130.542 108.913
v  -48.5844 55.0114 -100.135
v  -70.3713 97.9689 -55.6522
v  -46.0751 164.951 -55.9305
v  -50.877 106.524 -100.018
v  44.1445 165.644 -56.1247
v  44.1001 107.586 -100.717
v  9.43626 121.563 -109.917
v  9.98599 184.434 -61.3938
v  46.8836 64.3966 95.0851
v  43.9878 98.1841 63.9919
v  -9.67179 184.434 -61.3938
v  -10.0911 121.563 -109.917
v  43.7802 97.9689 -55.6522
v  44.1354 55.6917 -100.796
v  43.7802 124.026 -15.6522
v  43.9809 200.788 -15.6913
v  43.7802 124.026 24.3478
v  26.092 212.172 37.9765
v  46.0678 -211.961 -104.022
v  10.0752 -228.059 -110.716
v  10.0292 -163.613 -110.242
v  44.9456 -154.033 -102.15
v  -54.0386 -295.825 24.478
v  -70.3713 -294.177 -15.6521
v  -32.4858 -333.691 -4.23891
v  -25.4282 -332.715 38.7512
v  -44.1185 -296.186 64.8403
v  -9.70821 -316.984 70.0219
v  9.85916 222.564 -17.4915
v  -70.3713 97.9689 64.3478
v  -50.4463 61.0444 100.013
v  -54.0431 114.704 100
v  -47.5456 172.451 66.6524
v  -70.3713 124.026 24.3478
v  -45.608 210.073 25.2051
v  -70.3713 124.026 -15.6522
v  -44.1403 200.942 -15.8386
v  -70.3713 -294.177 -55.6521
v  -18.4329 -316.997 -61.2651
v  -9.53326 234.908 40.77
v  47.0676 -91.9841 -105.7
v  10.1946 -98.2096 -111.351
v  9.95106 8.59329 -109.917
v  44.1416 3.68499 -100.81
v  -70.3713 -190.146 -55.6521
v  -70.3713 -175.277 -15.6521
v  -70.3713 -56.3771 -15.6522
v  -48.5568 -86.1143 -55.6522
v  -70.3713 49.3507 -15.6522
v  -70.3713 31.9793 -55.6522
v  -70.3713 -175.277 24.3479
v  -70.3713 -56.3771 24.3478
v  -70.3713 49.3507 24.3478
v  -51.4377 -189.214 65.7243
v  -47.4382 -84.7496 66.3633
v  -70.3713 31.9793 64.3478
v  -35.6726 -160.765 115.918
v  -35.6311 -92.5854 115.776
v  -51.8438 7.35216 100
v  43.7802 -190.146 64.3479
v  48.2277 -170.668 16.7236
v  55.7102 -44.0137 3.89619
v  55.7102 -73.7509 43.8962
v  55.7102 61.7141 3.89618
v  55.7102 44.3427 43.8962
v  55.7102 -162.914 -36.1038
v  55.7102 -44.0137 -36.1038
v  48.2277 53.9597 -23.2765
v  55.7102 -177.782 -76.1038
v  55.7102 -73.7509 -76.1038
v  43.7802 31.9793 -55.6522
v  -9.27314 -98.8896 -110.226
v  -44.0869 -95.4711 -100.797
v  -47.36 3.38962 -100.262
v  -9.49078 8.59329 -109.917
v  -9.54142 -163.809 -109.917
v  -45.9162 -154.785 -100.487
v  -9.58199 65.078 -109.917
v  48.8299 -97.9174 92.7461
v  47.4644 11.1861 93.9143
v  19.5492 -96.6911 119.02
v  9.40824 14.1329 107.176
v  9.71013 72.6031 107.606
v  10.192 -317.023 70.0531
v  44.0449 -296.367 64.9808
v  -48.4969 -213.708 -100.149
v  -9.52622 71.9709 108.652
v  -10.8028 130.542 108.913
v  43.6525 -294.351 -55.5143
v  30.0709 -312.801 -0.859476
v  30.2715 -314.362 39.344
v  -44.102 -239.194 100.751
v  1.45138 -317.025 -61.2429
v  -9.48243 -255.076 108.913
v  -9.8146 13.3859 108.412
v  -0.265309 -169.952 125.392
v  0.473368 -95.4156 124.447
v  9.87523 65.078 -109.917
v  -28.0057 193.349 80.3726
v  -27.863 231.138 36.3423
v  -9.99971 222.539 -17.5204
v  -6.04388 -337.212 42.3236
v  -13.2937 -337.212 -1.44237
v  -9.64968 -228.52 -109.952

# 179 UV coordinates
vt 0.18142 0.0792939 0
vt 0.262643 0.0972739 0
vt 0.266913 0.185061 0
vt 0.203952 0.185661 0
vt 0.272623 0.559559 0
vt 0.232677 0.642079 0
vt 0.148401 0.670647 0
vt 0.188396 0.581782 0
vt 0.00381683 0.870182 0
vt 0 0.790079 0
vt 0.0370284 0.721737 0
vt 0.0370284 0.817087 0
vt 0.400072 0.57505 0
vt 0.468123 0.575516 0
vt 0.470528 0.678505 0
vt 0.396615 0.676509 0
vt 0.993969 0.196028 0
vt 0.961873 0.151303 0
vt 0.977281 0.0460004 0
vt 1 0.128992 0
vt 0.396677 0.735044 0
vt 0.47059 0.736651 0
vt 0.46825 0.858346 0
vt 0.400491 0.843706 0
vt 0.837389 0.150376 0
vt 0.790085 0.205033 0
vt 0.790581 0.137458 0
vt 0.837439 0.0623061 0
vt 0.879214 0.116841 0
vt 0.879786 0.0169189 0
vt 0.920831 0.117234 0
vt 0.935617 0 0
vt 0.280503 0.140946 0
vt 0.366008 0.120765 0
vt 0.36612 0.204465 0
vt 0.283179 0.216032 0
vt 0.602135 0.708143 0
vt 0.643439 0.659064 0
vt 0.636139 0.775238 0
vt 0.591571 0.796558 0
vt 0.560439 0.73806 0
vt 0.557465 0.842186 0
vt 0.346288 0.575436 0
vt 0.338229 0.676777 0
vt 0.617232 0.140806 0
vt 0.576608 0.192472 0
vt 0.577268 0.121968 0
vt 0.610668 0.0483089 0
vt 0.658723 0.107158 0
vt 0.653305 0 0
vt 0.700219 0.10741 0
vt 0.695618 0.0124205 0
vt 0.430617 0.916824 0
vt 0.38135 0.916824 0
vt 0.346636 0.837832 0
vt 0.684811 0.658654 0
vt 0.693248 0.814923 0
vt 0.290911 0.628975 0
vt 0.278119 0.734816 0
vt 0.23525 0.689151 0
vt 0.151227 0.721737 0
vt 0.278119 0.297035 0
vt 0.365721 0.289575 0
vt 0.366307 0.42822 0
vt 0.285096 0.420854 0
vt 0.741772 0.516382 0
vt 0.700274 0.496788 0
vt 0.700252 0.342105 0
vt 0.737778 0.385262 0
vt 0.700233 0.204558 0
vt 0.741732 0.227409 0
vt 0.74172 0.14156 0
vt 0.658778 0.496536 0
vt 0.658756 0.341853 0
vt 0.658737 0.204307 0
vt 0.523471 0.729999 0
vt 0.480065 0.74976 0
vt 0.47059 0.61366 0
vt 0.523471 0.57505 0
vt 0.610995 0.382936 0
vt 0.617244 0.226655 0
vt 0.612406 0.518069 0
vt 0.557457 0.483791 0
vt 0.557584 0.395103 0
vt 0.576887 0.262053 0
vt 0 0.46178 0
vt 0.0418954 0.426823 0
vt 0.0467706 0.496645 0
vt 0.00191512 0.547743 0
vt 0.959943 0.526709 0
vt 0.910573 0.501531 0
vt 0.898278 0.337586 0
vt 0.939658 0.3767 0
vt 0.899121 0.199918 0
vt 0.940599 0.222931 0
vt 0.855712 0.492012 0
vt 0.856661 0.337193 0
vt 0.870747 0.208651 0
vt 0.813977 0.510979 0
vt 0.814806 0.37552 0
vt 0.836863 0.236301 0
vt 0.787008 0.478221 0
vt 0.783821 0.397703 0
vt 0.789656 0.272752 0
vt 0.411992 0.288595 0
vt 0.494774 0.292093 0
vt 0.502555 0.420514 0
vt 0.412511 0.428241 0
vt 0.412632 0.204198 0
vt 0.499123 0.214981 0
vt 0.505466 0.487586 0
vt 0.412728 0.501645 0
vt 1 0.503334 0
vt 0.990252 0.407639 0
vt 0.99233 0.265387 0
vt 0.783821 0.475391 0
vt 0.783798 0.398582 0
vt 0.783821 0.269334 0
vt 0.557457 0.453041 0
vt 0.557457 0.538797 0
vt 0.20763 0.284456 0
vt 0.278119 0.28128 0
vt 0.277999 0.423482 0
vt 0.187228 0.430122 0
vt 0.278119 0.492806 0
vt 0.189625 0.506249 0
vt 0.180908 0 0
vt 0.26207 0.0241748 0
vt 0.505257 0.138377 0
vt 0.557457 0.0291878 0
vt 0.557457 0.164381 0
vt 0.997462 0.591072 0
vt 0.959755 0.665064 0
vt 0.143899 0.507044 0
vt 0.142558 0.583445 0
vt 0.0397897 0.566857 0
vt 0.834403 0.661197 0
vt 0.784604 0.553795 0
vt 0.891046 0.683767 0
vt 0.932863 0.686224 0
vt 0.612009 0.658654 0
vt 0.574741 0.584289 0
vt 0.655688 0.65652 0
vt 0.700295 0.65147 0
vt 0.741791 0.651722 0
vt 0.386742 0 0
vt 0.286477 0.0288221 0
vt 0.0530902 0.104959 0
vt 0.0527812 0.032009 0
vt 0.133668 0.00176629 0
vt 0.134502 0.080996 0
vt 0.141523 0.430761 0
vt 0.0747933 0.205857 0
vt 0.158218 0.190498 0
vt 0.162171 0.287566 0
vt 0.0768759 0.294674 0
vt 0.366487 0.501624 0
vt 0.285111 0.488437 0
vt 0.104641 0.667767 0
vt 0.107774 0.718563 0
vt 0.0654652 0.693051 0
vt 0.058176 0.64272 0
vt 0.284032 0.789406 0
vt 0.33833 0.735911 0
vt 0.304055 0.842404 0
vt 0.510915 0.554519 0
vt 0.413938 0.57505 0
vt 0.557457 0.901311 0
vt 0.588404 0.854582 0
vt 0.588939 0.960414 0
vt 0.560402 1 0
vt 0.633664 0.832596 0
vt 0.630345 0.959268 0
vt 0.693248 0.873999 0
vt 0.684802 0.997421 0
vt 0.412889 0.120107 0
vt 0.367531 0.575028 0
vt 0.285195 0.555867 0
vt 0.433997 6.05496e-05 0

# 112 vertex normals
vn 0.2322 -0.351922 0.906771
vn 0.926262 -0.1253 0.35544
vn 0.934301 -0.0436824 0.353798
vn 0.379581 -0.0538158 0.923592
vn 0.925895 0.180171 0.332049
vn 0.825158 0.37026 0.426639
vn 0.0775375 0.588653 0.804659
vn 0.185844 0.201632 0.961669
vn -0.717745 0.0296324 -0.695675
vn -0.974457 0.0997318 -0.201215
vn -0.77118 0.444836 -0.455414
vn -0.73485 0.231547 -0.637481
vn 0.937657 0.236731 -0.254477
vn 0.91526 0.118891 -0.384922
vn 0.184574 0.328192 -0.926403
vn 0.236042 0.669396 -0.70441
vn 0.906561 0.076564 0.415072
vn 0.98634 0.158031 0.0464616
vn -0.225342 0.672714 -0.704753
vn -0.177479 0.329181 -0.927438
vn 0.999631 0.0109999 -0.0248234
vn 0.933845 -0.000165842 -0.357678
vn 0.997927 0.0643542 -0.00080865
vn 0.94029 0.334894 -0.0608395
vn 0.985312 0.148543 0.0842326
vn 0.829573 0.510762 0.225679
vn 0.814533 -0.152667 -0.559669
vn 0.156864 -0.262406 -0.952122
vn 0.083347 -0.00526512 -0.996507
vn 0.785314 -0.0352069 -0.618096
vn -0.907797 -0.320428 0.270612
vn -0.962143 -0.26762 0.0515703
vn -0.54118 -0.840506 -0.0259699
vn -0.543497 -0.789135 0.28614
vn -0.814402 -0.362845 0.452871
vn -0.275931 -0.672253 0.686977
vn 0.332422 0.874899 -0.352203
vn -0.976185 0.0873095 0.198593
vn -0.678663 0.0301764 0.73383
vn -0.758402 0.159284 0.632025
vn -0.844819 0.336197 0.416236
vn -0.986534 0.156833 0.0464141
vn -0.87395 0.480631 0.0721512
vn -0.982605 0.168111 -0.0789073
vn -0.809661 0.522291 -0.267695
vn -0.904839 -0.300921 -0.301187
vn -0.236501 -0.750014 -0.617695
vn 0.119278 0.952497 0.280217
vn 0.814247 0.0176097 -0.580251
vn 0.0850758 -0.00289101 -0.99637
vn 0.110566 0.0102641 -0.993816
vn 0.88645 0.057311 -0.459263
vn -0.971717 0.0415337 -0.232467
vn -0.999276 0.00916703 -0.0369362
vn -0.993236 -0.014464 -0.115204
vn -0.964043 0.0101374 -0.265553
vn -0.999229 -0.016193 -0.0357639
vn -0.969978 -0.0524065 -0.237479
vn -0.973157 -0.0327787 0.227796
vn -0.990288 -0.0283883 0.136105
vn -0.999183 -0.0166654 0.0368302
vn -0.955752 -0.0262094 0.293003
vn -0.947083 -0.0525054 0.316665
vn -0.965538 -0.0530854 0.254792
vn -0.811142 -0.0228031 0.584404
vn -0.779079 0.000893159 0.626926
vn -0.799099 -0.0597584 0.598222
vn 0.998047 -0.0540038 -0.0313866
vn 0.996194 -0.085297 0.0179444
vn 0.999954 -0.00676204 -0.0067754
vn 0.997434 -0.0393126 0.0598264
vn 0.994146 0.100403 -0.0399094
vn 0.994503 0.0642201 0.0826976
vn 0.99635 -0.0562144 0.064245
vn 0.99722 0.0457414 -0.0588259
vn 0.991042 0.073528 -0.11149
vn 0.994024 -0.0655613 -0.0872782
vn 0.99101 0.0429543 -0.126701
vn 0.994728 0.0593694 -0.0836196
vn -0.145887 -0.000907832 -0.989301
vn -0.81027 0.0203638 -0.585703
vn -0.789754 -0.0576583 -0.610708
vn -0.134316 0.00142373 -0.990938
vn -0.144187 -0.000938267 -0.98955
vn -0.777875 0.0729012 -0.624177
vn -0.122291 -0.00178986 -0.992493
vn 0.936182 -0.0141388 0.351231
vn 0.894687 0.0353566 0.445293
vn 0.420519 0.0669343 0.904811
vn 0.26492 0.0497663 0.962985
vn 0.172709 -0.0214957 0.984738
vn 0.325797 -0.725546 0.606168
vn 0.949663 -0.271266 0.1567
vn -0.673603 -0.10919 -0.730984
vn -0.0780914 -0.00748905 0.996918
vn -0.191785 0.187258 0.963407
vn 0.918124 -0.352912 -0.18028
vn 0.878974 -0.476865 0.00196372
vn 0.866487 -0.495173 0.0632792
vn -0.863861 -0.135704 0.485107
vn 0.259611 -0.776795 -0.573752
vn -0.181768 -0.358841 0.915529
vn -0.0617368 0.0636253 0.996062
vn -0.0438138 -0.0788006 0.995927
vn 6.97093e-05 0.0743136 0.997235
vn 0.1322 0.000575585 -0.991223
vn -0.520843 0.50985 0.684672
vn -0.572066 0.801974 0.171984
vn -0.250936 0.861994 -0.440452
vn 0.15179 -0.953212 0.261432
vn 0.113382 -0.984731 -0.132097
vn -0.148738 -0.244169 -0.958258

# Mesh 'Cube_Cube' with 220 faces
g Cube_Cube
usemtl Material
f  1/1/1 2/2/2 3/3/3
f  3/3/3 4/4/4 1/1/1
f  5/5/5 6/6/6 7/7/7
f  7/7/7 8/8/8 5/5/5
f  9/9/9 10/10/10 11/11/11
f  11/11/11 12/12/12 9/9/9
f  13/13/13 14/14/14 15/15/15
f  15/15/15 16/16/16 13/13/13
f  17/17/17 18/18/18 6/19/6
f  6/19/6 5/20/5 17/17/17
f  19/21/19 20/22/20 12/23/12
f  12/23/12 11/24/11 19/21/19
f  21/25/21 22/26/22 14/27/14
f  14/27/14 13/28/13 21/25/21
f  23/29/23 21/25/21 13/28/13
f  13/28/13 24/30/24 23/29/23
f  25/31/25 23/29/23 24/30/24
f  24/30/24 26/32/26 25/31/25
f  18/18/18 25/31/25 26/32/26
f  26/32/26 6/19/6 18/18/18
f  27/33/27 28/34/28 29/35/29
f  29/35/29 30/36/30 27/33/27
f  31/37/31 32/38/32 33/39/33
f  33/39/33 34/40/34 31/37/31
f  35/41/35 31/37/31 34/40/34
f  34/40/34 36/42/36 35/41/35
f  24/43/24 13/13/13 16/16/16
f  16/16/16 37/44/37 24/43/24
f  38/45/38 39/46/39 40/47/40
f  40/47/40 41/48/41 38/45/38
f  42/49/42 38/45/38 41/48/41
f  41/48/41 43/50/43 42/49/42
f  44/51/44 42/49/42 43/50/43
f  43/50/43 45/52/45 44/51/44
f  10/53/10 44/54/44 45/55/45
f  45/55/45 11/24/11 10/53/10
f  32/38/32 46/56/46 47/57/47
f  47/57/47 33/39/33 32/38/32
f  26/58/26 24/43/24 37/44/37
f  37/44/37 48/59/48 26/58/26
f  6/6/6 26/60/26 48/61/48
f  48/61/48 7/7/7 6/6/6
f  49/62/49 50/63/50 51/64/51
f  51/64/51 52/65/52 49/62/49
f  53/66/53 54/67/54 55/68/55
f  55/68/55 56/69/56 53/66/53
f  56/69/56 55/68/55 57/70/57
f  57/70/57 58/71/58 56/69/56
f  58/71/58 57/70/57 44/51/44
f  44/51/44 10/72/10 58/71/58
f  54/67/54 59/73/59 60/74/60
f  60/74/60 55/68/55 54/67/54
f  55/68/55 60/74/60 61/75/61
f  61/75/61 57/70/57 55/68/55
f  57/70/57 61/75/61 42/49/42
f  42/49/42 44/51/44 57/70/57
f  59/76/59 62/77/62 63/78/63
f  63/78/63 60/79/60 59/76/59
f  60/74/60 63/80/63 64/81/64
f  64/81/64 61/75/61 60/74/60
f  61/75/61 64/81/64 38/45/38
f  38/45/38 42/49/42 61/75/61
f  62/82/62 65/83/65 66/84/66
f  66/84/66 63/80/63 62/82/62
f  63/80/63 66/84/66 67/85/67
f  67/85/67 64/81/64 63/80/63
f  64/86/64 67/87/67 39/88/39
f  39/88/39 38/89/38 64/86/64
f  68/90/68 69/91/69 70/92/70
f  70/92/70 71/93/71 68/90/68
f  71/93/71 70/92/70 72/94/72
f  72/94/72 73/95/73 71/93/71
f  73/95/73 72/94/72 25/31/25
f  25/31/25 18/18/18 73/95/73
f  69/91/69 74/96/74 75/97/75
f  75/97/75 70/92/70 69/91/69
f  70/92/70 75/97/75 76/98/76
f  76/98/76 72/94/72 70/92/70
f  72/94/72 76/98/76 23/29/23
f  23/29/23 25/31/25 72/94/72
f  74/96/74 77/99/77 78/100/78
f  78/100/78 75/97/75 74/96/74
f  75/97/75 78/100/78 79/101/79
f  79/101/79 76/98/76 75/97/75
f  76/98/76 79/101/79 21/25/21
f  21/25/21 23/29/23 76/98/76
f  77/99/77 30/102/30 49/103/49
f  49/103/49 78/100/78 77/99/77
f  78/100/78 49/103/49 52/104/52
f  52/104/52 79/101/79 78/100/78
f  79/101/79 52/104/52 22/26/22
f  22/26/22 21/25/21 79/101/79
f  80/105/80 81/106/81 82/107/82
f  82/107/82 83/108/83 80/105/80
f  84/109/84 85/110/85 81/106/81
f  81/106/81 80/105/80 84/109/84
f  83/108/83 82/107/82 9/111/9
f  9/111/9 86/112/86 83/108/83
f  3/113/3 68/90/68 71/93/71
f  71/93/71 87/114/87 3/113/3
f  87/114/87 71/93/71 73/95/73
f  73/95/73 88/115/88 87/114/87
f  88/115/88 73/95/73 18/18/18
f  18/18/18 17/17/17 88/115/88
f  85/116/85 53/66/53 56/69/56
f  56/69/56 81/117/81 85/116/85
f  81/117/81 56/69/56 58/71/58
f  58/71/58 82/118/82 81/117/81
f  82/107/82 58/119/58 10/120/10
f  10/120/10 9/111/9 82/107/82
f  89/121/89 87/122/87 88/123/88
f  88/123/88 90/124/90 89/121/89
f  4/4/4 3/3/3 87/122/87
f  87/122/87 89/121/89 4/4/4
f  90/124/90 88/123/88 17/125/17
f  17/125/17 91/126/91 90/124/90
f  1/1/1 92/127/92 93/128/93
f  93/128/93 2/2/2 1/1/1
f  94/129/94 46/130/46 53/131/53
f  53/131/53 85/110/85 94/129/94
f  2/132/2 93/133/93 68/90/68
f  68/90/68 3/113/3 2/132/2
f  39/88/39 95/134/95 96/135/96
f  96/135/96 40/136/40 39/88/39
f  97/137/97 27/138/27 30/102/30
f  30/102/30 77/99/77 97/137/97
f  98/139/98 97/137/97 77/99/77
f  77/99/77 74/96/74 98/139/98
f  99/140/99 98/139/98 74/96/74
f  74/96/74 69/91/69 99/140/99
f  93/133/93 99/140/99 69/91/69
f  69/91/69 68/90/68 93/133/93
f  35/141/35 100/142/100 65/83/65
f  65/83/65 62/82/62 35/141/35
f  31/143/31 35/141/35 62/82/62
f  62/82/62 59/73/59 31/143/31
f  32/144/32 31/143/31 59/73/59
f  59/73/59 54/67/54 32/144/32
f  46/145/46 32/144/32 54/67/54
f  54/67/54 53/66/53 46/145/46
f  101/146/101 28/34/28 27/33/27
f  27/33/27 97/147/97 101/146/101
f  100/148/100 35/149/35 36/150/36
f  36/150/36 102/151/102 100/148/100
f  67/87/67 103/152/103 95/134/95
f  95/134/95 39/88/39 67/87/67
f  65/153/65 104/154/104 105/155/105
f  105/155/105 66/156/66 65/153/65
f  66/156/66 105/155/105 103/152/103
f  103/152/103 67/87/67 66/156/66
f  52/65/52 51/64/51 106/157/106
f  106/157/106 22/158/22 52/65/52
f  30/36/30 29/35/29 50/63/50
f  50/63/50 49/62/49 30/36/30
f  107/159/107 108/160/108 43/161/43
f  43/161/43 41/162/41 107/159/107
f  108/163/108 109/164/109 45/55/45
f  45/55/45 43/165/43 108/163/108
f  109/164/109 19/21/19 11/24/11
f  11/24/11 45/55/45 109/164/109
f  86/112/86 9/111/9 12/166/12
f  12/166/12 20/167/20 86/112/86
f  92/168/92 110/169/110 99/170/99
f  99/170/99 93/171/93 92/168/92
f  110/169/110 111/172/111 98/173/98
f  98/173/98 99/170/99 110/169/110
f  111/172/111 101/174/101 97/175/97
f  97/175/97 98/173/98 111/172/111
f  112/176/112 94/129/94 85/110/85
f  85/110/85 84/109/84 112/176/112
f  22/158/22 106/157/106 15/177/15
f  15/177/15 14/178/14 22/158/22
f  100/148/100 102/151/102 104/154/104
f  104/154/104 65/153/65 100/148/100
f  96/135/96 107/159/107 41/162/41
f  41/162/41 40/136/40 96/135/96
f  91/126/91 17/125/17 5/5/5
f  5/5/5 8/8/8 91/126/91
f  84/109/84 29/35/29 28/34/28
f  28/34/28 112/176/112 84/109/84
f  4/4/4 104/154/104 102/151/102
f  102/151/102 1/1/1 4/4/4
f  91/126/91 95/134/95 103/152/103
f  103/152/103 90/124/90 91/126/91
f  90/124/90 103/152/103 105/155/105
f  105/155/105 89/121/89 90/124/90
f  89/121/89 105/155/105 104/154/104
f  104/154/104 4/4/4 89/121/89
f  86/112/86 106/157/106 51/64/51
f  51/64/51 83/108/83 86/112/86
f  83/108/83 51/64/51 50/63/50
f  50/63/50 80/105/80 83/108/83
f  80/105/80 50/63/50 29/35/29
f  29/35/29 84/109/84 80/105/80
f  48/61/48 108/160/108 107/159/107
f  107/159/107 7/7/7 48/61/48
f  37/44/37 109/164/109 108/163/108
f  108/163/108 48/59/48 37/44/37
f  16/16/16 19/21/19 109/164/109
f  109/164/109 37/44/37 16/16/16
f  15/15/15 20/22/20 19/21/19
f  19/21/19 16/16/16 15/15/15
f  34/40/34 110/169/110 92/168/92
f  92/168/92 36/42/36 34/40/34
f  33/39/33 111/172/111 110/169/110
f  110/169/110 34/40/34 33/39/33
f  47/57/47 101/174/101 111/172/111
f  111/172/111 33/39/33 47/57/47
f  112/176/112 28/34/28 101/146/101
f  101/146/101 47/179/47 112/176/112
f  20/167/20 15/177/15 106/157/106
f  106/157/106 86/112/86 20/167/20
f  36/150/36 92/127/92 1/1/1
f  1/1/1 102/151/102 36/150/36
f  8/8/8 96/135/96 95/134/95
f  95/134/95 91/126/91 8/8/8
f  7/7/7 107/159/107 96/135/96
f  96/135/96 8/8/8 7/7/7
f  46/130/46 94/129/94 112/176/112
f  112/176/112 47/179/47 46/130/46

