# File produced by Open Asset Import Library (http://www.assimp.sf.net)
# (assimp v3.1.193236683)

mtllib monolith_04.mtl

# 110 vertex positions
v  -64.0501 -56.1856 -193.881
v  -91.9683 -47.412 -108.302
v  -94.6866 -6.36542 -127.511
v  -70.7453 -10.6386 -162.065
v  -58.6212 -86.3715 -179.259
v  -69.1741 -82.5103 -99.9178
v  -21.9914 0.781425 -216.889
v  -67.4779 5.64815 -158.653
v  -13.6275 103.81 -162.951
v  -18.2985 -95.443 -196.705
v  -20.2784 -64.5821 -219.142
v  51.1875 -87.134 -116.575
v  52.3055 -85.8651 -181.966
v  58.2306 -57.2487 -198.667
v  68.517 -51.3672 -141.922
v  -78.5167 -40.4815 -53.8072
v  -83.2269 15.2655 -56.0273
v  -55.9492 -76.2446 -51.9394
v  83.2135 2.45157 -168.61
v  103.887 5.13832 -142.376
v  -77.2164 -8.54851 40.7082
v  -54.3483 -3.69161 147.546
v  -56.0436 34.4931 153.185
v  -79.9334 31.6605 43.093
v  -54.0913 -51.0434 30.5262
v  -49.9091 -47.3643 113.434
v  -54.0633 89.6433 114.229
v  -53.1973 98.7184 32.8049
v  80.4863 24.7338 -160.391
v  88.0946 54.8454 -114.971
v  58.8197 -8.15374 139.212
v  76.8417 -35.2703 8.64669
v  60.9805 44.7802 64.3717
v  38.7414 47.5241 137.899
v  85.1196 -50.0513 -76.8296
v  97.9885 14.7182 -64.4617
v  67.7257 -78.7935 -69.7578
v  -30.9342 189.286 35.8119
v  -51.0311 199.869 -25.8624
v  -52.914 94.1292 -22.0713
v  29.2075 79.8767 112.345
v  25.5385 80.3504 53.0747
v  0.824656 235.435 41.8745
v  -5.15501 176.02 99.3579
v  -57.063 79.832 -54.6188
v  -77.0243 19.3404 -129.169
v  -75.4173 -32.5021 -23.0152
v  -80.5702 22.3154 -23.8193
v  6.69668 -132.499 64.7398
v  52.1397 -42.6496 113.204
v  23.5688 -7.12721 167.37
v  65.5778 93.7495 -49.2359
v  22.9663 90.6939 -105.275
v  19.1728 240.298 -45.6723
v  -24.8721 -95.9264 -115.538
v  -8.03805 -139.566 -11.1973
v  -5.48849 -153.077 33.6513
v  -4.62393 -132.845 64.3553
v  20.1644 43.0529 -200.71
v  18.8758 -0.140667 -219.729
v  -8.49144 -95.4532 -116.819
v  7.19903 -93.9757 -117.469
v  6.08861 -139.032 -12.4671
v  -0.915323 -139.534 -11.938
v  10.0482 50.5771 170.751
v  70.6777 -59.2168 2.58661
v  85.5484 -46.3478 -47.0431
v  92.4671 19.8949 -36.8951
v  56.5775 98.7084 -24.8592
v  71.6795 -71.6629 -40.3377
v  -29.0289 45.2048 177.053
v  -44.3539 99.6678 133.782
v  13.579 -96.169 -198.741
v  5.83516 -152.819 33.8932
v  5.86879 -150.028 21.6705
v  15.8866 -65.4074 -221.678
v  15.6072 255.646 -24.1651
v  -8.80204 129.148 -109.074
v  -52.5484 -68.8291 -21.4748
v  -5.46251 -150.588 23.0997
v  -48.4162 191.392 -48.9268
v  -14.7211 -5.64827 170.799
v  -9.49039 47.891 173.902
v  4.5938 -6.40377 169.138
v  0.203395 -150.355 22.2525
v  0.173619 -152.947 33.7719
v  2.93097 132.26 -108.17
v  -1.3516 241.314 -48.417
v  -2.36124 -95.8061 -197.723
v  1.0368 -132.674 64.5484
v  -14.0909 239.626 38.8437
v  -20.7675 179.132 101.476
v  -1.38469 103.704 -162.775
v  -1.55781 0.320377 -218.309
v  -4.25455 255.692 -24.4569
v  -2.19566 -64.9948 -220.41
v  86.5085 -48.839 -63.0142
v  70.6472 -75.7602 -56.0522
v  -81.3742 19.2919 -40.1048
v  -76.096 -37.3566 -38.8026
v  -54.0649 89.3238 -38.5077
v  95.9319 16.8974 -50.9933
v  61.0801 98.3462 -36.7277
v  -53.3146 -73.2643 -37.1607
v  5.95247 -145.051 4.15721
v  -0.104839 -145.462 4.74758
v  -6.19708 -145.557 5.56035
v  -51.9682 198.221 -37.9107
v  -2.49221 252.863 -37.3341
v  17.9194 252.795 -36.1589

# 180 UV coordinates
vt 0.031866 0.24292 0
vt 0 0.144774 0
vt 0.0160093 0.114949 0
vt 0.0541081 0.18025 0
vt 0.890629 0.87527 0
vt 0.915447 0.784339 0
vt 0.986367 0.792768 0
vt 0.919626 0.890909 0
vt 0.147851 0.290779 0
vt 0.0717534 0.172396 0
vt 0.241787 0.203147 0
vt 0.67391 0.592712 0
vt 0.647511 0.495146 0
vt 0.670858 0.489984 0
vt 0.705865 0.59448 0
vt 0.628104 0.808616 0
vt 0.688758 0.790516 0
vt 0.717337 0.814228 0
vt 0.671363 0.863254 0
vt 0.229411 1 0
vt 0.182632 0.949588 0
vt 0.200709 0.914993 0
vt 0.25959 0.978405 0
vt 0.888191 0.72907 0
vt 0.958862 0.730009 0
vt 0.722032 0.918897 0
vt 0.7063 0.984027 0
vt 0.971929 0.620558 0
vt 0.921175 0.497874 0
vt 0.945778 0.489984 0
vt 1 0.616325 0
vt 0.896501 0.633669 0
vt 0.88779 0.53856 0
vt 0.112192 0.864235 0
vt 0.0135736 0.778249 0
vt 0.0678403 0.741596 0
vt 0.148197 0.757644 0
vt 0.422616 0.505415 0
vt 0.373105 0.477596 0
vt 0.383447 0.451105 0
vt 0.428037 0.423281 0
vt 0.485841 0.165729 0
vt 0.5866 0.0683803 0
vt 0.576923 0.182035 0
vt 0.505154 0.252522 0
vt 0.618162 0.929759 0
vt 0.636805 0.998615 0
vt 0.594346 0.872188 0
vt 0.177757 0.637229 0
vt 0.235258 0.689512 0
vt 0.199026 0.777739 0
vt 0.537571 0.291324 0
vt 0.582745 0.282525 0
vt 0.66308 0.455818 0
vt 0.579682 0.437472 0
vt 0.224711 0.807987 0
vt 0.272824 0.921433 0
vt 0.955735 0.694425 0
vt 0.997347 0.693307 0
vt 0.950774 0.290657 0
vt 0.791732 0.312229 0
vt 0.747781 0.294327 0
vt 0.801851 0.206783 0
vt 0.421633 0.320303 0
vt 0.320702 0.261824 0
vt 0.420574 0.110859 0
vt 0.109673 0.346868 0
vt 0.0676372 0.130278 0
vt 0.808009 0.802433 0
vt 0.744483 0.684484 0
vt 0.730657 0.63362 0
vt 0.739283 0.597688 0
vt 0.263587 0.334027 0
vt 0.229511 0.373651 0
vt 0.604303 0.645363 0
vt 0.610934 0.687715 0
vt 0.49686 0.698406 0
vt 0.493743 0.679654 0
vt 0.461791 0.325317 0
vt 0.435919 0.908221 0
vt 0.536951 0.913242 0
vt 0.542973 0.942945 0
vt 0.428037 0.950868 0
vt 0.687115 0.0424986 0
vt 0.747781 0 0
vt 0.743611 0.0811373 0
vt 0.698316 0.178896 0
vt 0.630523 0.0250825 0
vt 0.664404 0.0662592 0
vt 0.675741 0.208958 0
vt 0.172815 0.89381 0
vt 0.571636 0.895842 0
vt 0.592543 0.942517 0
vt 0 0.706068 0
vt 0.0544098 0.707267 0
vt 0.68657 0.676767 0
vt 0.448977 0.706625 0
vt 0.461258 0.703973 0
vt 0.429075 0.728692 0
vt 0.44077 0.24949 0
vt 0.720434 0.689765 0
vt 0.736941 0.421669 0
vt 0.320607 0.744523 0
vt 0.272824 0.704617 0
vt 0.294895 0.509224 0
vt 0.320607 0.505415 0
vt 0.884078 0.69388 0
vt 0.732116 0.645609 0
vt 0.251988 0.0170632 0
vt 0.279629 0.170045 0
vt 0.162948 0.0906506 0
vt 0.979368 0.0861295 0
vt 0.971598 0.26555 0
vt 0.868969 0.11861 0
vt 0.946663 0.0341355 0
vt 0.85805 0.0463713 0
vt 0.921807 0 0
vt 0.278106 0.487986 0
vt 0.181926 0.420222 0
vt 0.821893 0.0891375 0
vt 0.835097 0.163077 0
vt 0.785735 0.131904 0
vt 0.458627 0.688893 0
vt 0.447069 0.691416 0
vt 0.305585 0.190443 0
vt 0.378974 0.0705509 0
vt 0.758321 0.896388 0
vt 0.722032 0.897459 0
vt 0.736458 0.804351 0
vt 0.771182 0.80377 0
vt 0.794603 0.895317 0
vt 0.986406 0.299621 0
vt 0.976044 0.312229 0
vt 0.961186 0.278105 0
vt 0.996769 0.287012 0
vt 0.193862 0.560592 0
vt 0.114443 0.604001 0
vt 0.658063 0.489984 0
vt 0.569487 0.473729 0
vt 0.483285 0.469541 0
vt 0.428037 0.405831 0
vt 0.444914 0.365574 0
vt 0.266588 0.227409 0
vt 0.188681 0.332215 0
vt 0.455791 0.673944 0
vt 0.445159 0.676204 0
vt 0.59725 0.60185 0
vt 0.490576 0.660876 0
vt 0.261063 0.546742 0
vt 0.265074 0.505415 0
vt 0.192935 0.532047 0
vt 0.71315 0.642123 0
vt 0.680239 0.634736 0
vt 0.1458 0.383546 0
vt 0.606494 0.938615 0
vt 0.584028 0.885953 0
vt 0.997762 0.712076 0
vt 1 0.730474 0
vt 0.954859 0.712692 0
vt 0.212937 0.7891 0
vt 0.187201 0.902963 0
vt 0.676243 0.052466 0
vt 0.642497 0.0164781 0
vt 0.624637 0.998615 0
vt 0.687971 0.195706 0
vt 0.883628 0.712015 0
vt 0.479251 0.700727 0
vt 0.476443 0.684565 0
vt 0.473545 0.668532 0
vt 0.246006 0.696519 0
vt 0.272824 0.54935 0
vt 0.251558 0 0
vt 0.386421 0.0544986 0
vt 0.387521 0.0433665 0
vt 0.427838 0.0826226 0
vt 0.428037 0.0944908 0
vt 0.736791 0.665508 0
vt 0.747781 0.395665 0
vt 0.746425 0.411044 0
vt 0.255167 0.698065 0

# 110 vertex normals
vn -0.825607 -0.201316 -0.52711
vn -0.982815 -0.184579 -0.00214542
vn -0.98399 0.122437 -0.129509
vn -0.832884 0.177691 -0.524147
vn -0.651237 -0.687136 -0.322077
vn -0.788859 -0.613506 0.0362137
vn -0.45987 0.283033 -0.841672
vn -0.773717 0.421325 -0.473125
vn -0.542222 0.617242 -0.570094
vn -0.213295 -0.865228 -0.453745
vn -0.367578 -0.231457 -0.90073
vn 0.653559 -0.742581 -0.146402
vn 0.735831 -0.628744 -0.251463
vn 0.813838 -0.274081 -0.512394
vn 0.89546 -0.416043 -0.158304
vn -0.943264 -0.248243 0.220517
vn -0.984166 0.156819 0.0826121
vn -0.782493 -0.610324 0.123323
vn 0.850736 -0.00416243 -0.525577
vn 0.986094 -0.0146566 -0.165543
vn -0.972708 -0.200844 0.116194
vn -0.854571 -0.280939 0.436785
vn -0.911279 0.0743837 0.405015
vn -0.991293 0.104234 0.0804563
vn -0.882557 -0.450185 0.135744
vn -0.80868 -0.492311 0.321972
vn -0.938697 0.288188 0.189199
vn -0.962625 0.255955 0.0885494
vn 0.63108 0.520271 -0.575375
vn 0.868898 0.462577 -0.176177
vn 0.933675 -0.0608711 0.35291
vn 0.962342 -0.161296 0.218819
vn 0.927688 0.313356 0.202986
vn 0.852536 0.345866 0.391866
vn 0.919979 -0.389092 -0.0473893
vn 0.998235 0.0253189 0.0537157
vn 0.740564 -0.652598 -0.160253
vn -0.932312 0.319274 0.16988
vn -0.959115 0.273963 0.071006
vn -0.980829 0.187351 0.0536077
vn 0.865557 0.429073 0.258277
vn 0.913737 0.342565 0.218482
vn 0.710844 0.56608 0.417438
vn 0.720608 0.468939 0.510705
vn -0.937233 0.310325 -0.159036
vn -0.856841 0.43856 -0.27109
vn -0.957816 -0.26911 0.100843
vn -0.993149 0.116717 0.00571141
vn 0.490177 -0.694272 0.526985
vn 0.799618 -0.47522 0.36712
vn 0.481685 -0.241227 0.84249
vn 0.914997 0.393897 -0.0873238
vn 0.704795 0.52737 -0.474494
vn 0.830791 0.43426 -0.348144
vn -0.303059 -0.947866 -0.0985122
vn -0.530617 -0.834556 -0.148196
vn -0.63154 -0.760363 0.151674
vn -0.514956 -0.701655 0.492443
vn 0.416526 0.548816 -0.724781
vn 0.275107 0.239781 -0.931033
vn 0.0189907 -0.980935 -0.193404
vn 0.186032 -0.970032 -0.156302
vn 0.348676 -0.896289 -0.274028
vn 0.0139704 -0.931833 -0.362618
vn 0.503973 0.284941 0.815365
vn 0.887244 -0.425116 0.179093
vn 0.951665 -0.250118 0.178255
vn 0.96462 0.118582 0.235469
vn 0.903126 0.334227 0.269546
vn 0.854043 -0.511383 0.0953814
vn -0.45841 0.149069 0.87615
vn -0.819752 0.370675 0.436585
vn 0.181134 -0.878594 -0.441886
vn 0.545422 -0.81312 0.203351
vn 0.538089 -0.839843 -0.071583
vn 0.265186 -0.278933 -0.92297
vn 0.748729 0.627475 0.213731
vn -0.566191 0.596369 -0.569009
vn -0.861524 -0.49545 0.11093
vn -0.633981 -0.770757 -0.0632636
vn -0.891384 0.285819 -0.351771
vn -0.169155 -0.391224 0.904616
vn 0.0450164 0.230734 0.971975
vn 0.0845071 -0.363392 0.927796
vn 0.0172639 -0.968767 -0.247371
vn 0.016614 -0.984217 0.176182
vn 0.388841 0.608515 -0.691746
vn -0.122984 0.578124 -0.806627
vn -0.0249724 -0.896838 -0.441654
vn 0.0199647 -0.745254 0.666482
vn -0.606431 0.7013 0.374727
vn -0.640067 0.534886 0.551553
vn 0.440913 0.674348 -0.592326
vn -0.0862999 0.253404 -0.963503
vn -0.49457 0.868233 0.0396412
vn -0.0721087 -0.297293 -0.952059
vn 0.951939 -0.298499 0.0686358
vn 0.805114 -0.592559 -0.0257728
vn -0.991101 0.123541 0.04957
vn -0.947186 -0.275525 0.164087
vn -0.985703 0.167937 -0.0137061
vn 0.987579 0.0695055 0.140914
vn 0.938331 0.314115 0.144456
vn -0.841641 -0.525411 0.124836
vn 0.445872 -0.875403 -0.18673
vn 0.0078489 -0.952598 -0.304131
vn -0.591585 -0.797999 -0.115001
vn -0.969896 0.224359 -0.0946788
vn -0.372538 0.811321 -0.450525
vn 0.822732 0.561695 -0.0872449

# Mesh 'Cube_Cube' with 216 faces
g Cube_Cube
usemtl Material
f  1/1/1 2/2/2 3/3/3
f  3/3/3 4/4/4 1/1/1
f  5/5/5 6/6/6 2/7/2
f  2/7/2 1/8/1 5/5/5
f  7/9/7 4/4/4 8/10/8
f  8/10/8 9/11/9 7/9/7
f  10/12/10 5/13/5 1/14/1
f  1/14/1 11/15/11 10/12/10
f  12/16/12 13/17/13 14/18/14
f  14/18/14 15/19/15 12/16/12
f  2/20/2 16/21/16 17/22/17
f  17/22/17 3/23/3 2/20/2
f  6/6/6 18/24/18 16/25/16
f  16/25/16 2/7/2 6/6/6
f  15/19/15 14/18/14 19/26/19
f  19/26/19 20/27/20 15/19/15
f  21/28/21 22/29/22 23/30/23
f  23/30/23 24/31/24 21/28/21
f  25/32/25 26/33/26 22/29/22
f  22/29/22 21/28/21 25/32/25
f  24/34/24 23/35/23 27/36/27
f  27/36/27 28/37/28 24/34/24
f  20/38/20 19/39/19 29/40/29
f  29/40/29 30/41/30 20/38/20
f  31/42/31 32/43/32 33/44/33
f  33/44/33 34/45/34 31/42/31
f  35/46/35 15/19/15 20/27/20
f  20/27/20 36/47/36 35/46/35
f  37/48/37 12/16/12 15/19/15
f  15/19/15 35/46/35 37/48/37
f  38/49/38 39/50/39 40/51/40
f  40/51/40 28/37/28 38/49/38
f  41/52/41 42/53/42 43/54/43
f  43/54/43 44/55/44 41/52/41
f  3/23/3 17/22/17 45/56/45
f  45/56/45 46/57/46 3/23/3
f  47/58/47 21/28/21 24/31/24
f  24/31/24 48/59/48 47/58/47
f  49/60/49 50/61/50 31/62/31
f  31/62/31 51/63/51 49/60/49
f  52/64/52 30/41/30 53/65/53
f  53/65/53 54/66/54 52/64/52
f  11/67/11 1/1/1 4/4/4
f  4/4/4 7/9/7 11/67/11
f  4/4/4 3/3/3 46/68/46
f  46/68/46 8/10/8 4/4/4
f  34/45/34 33/44/33 42/53/42
f  42/53/42 41/52/41 34/45/34
f  18/24/18 6/6/6 55/69/55
f  55/69/55 56/70/56 18/24/18
f  26/33/26 25/32/25 57/71/57
f  57/71/57 58/72/58 26/33/26
f  30/41/30 29/40/29 59/73/59
f  59/73/59 53/65/53 30/41/30
f  19/39/19 60/74/60 59/73/59
f  59/73/59 29/40/29 19/39/19
f  61/75/61 62/76/62 63/77/63
f  63/77/63 64/78/64 61/75/61
f  65/79/65 34/45/34 41/52/41
f  41/52/41 44/55/44 65/79/65
f  50/80/50 66/81/66 32/82/32
f  32/82/32 31/83/31 50/80/50
f  36/84/36 20/85/20 30/86/30
f  30/86/30 52/87/52 36/84/36
f  63/77/63 62/76/62 12/16/12
f  12/16/12 37/48/37 63/77/63
f  32/43/32 67/88/67 68/89/68
f  68/89/68 33/44/33 32/43/32
f  33/44/33 68/89/68 69/90/69
f  69/90/69 42/53/42 33/44/33
f  48/91/48 24/34/24 28/37/28
f  28/37/28 40/51/40 48/91/48
f  66/81/66 70/92/70 67/93/67
f  67/93/67 32/82/32 66/81/66
f  23/35/23 71/94/71 72/95/72
f  72/95/72 27/36/27 23/35/23
f  62/76/62 73/96/73 13/17/13
f  13/17/13 12/16/12 62/76/62
f  74/97/74 75/98/75 70/92/70
f  70/92/70 66/81/66 74/97/74
f  49/99/49 74/97/74 66/81/66
f  66/81/66 50/80/50 49/99/49
f  72/95/72 38/49/38 28/37/28
f  28/37/28 27/36/27 72/95/72
f  51/100/51 31/42/31 34/45/34
f  34/45/34 65/79/65 51/100/51
f  13/17/13 73/96/73 76/101/76
f  76/101/76 14/18/14 13/17/13
f  42/53/42 69/90/69 77/102/77
f  77/102/77 43/54/43 42/53/42
f  78/103/78 9/104/9 8/105/8
f  8/105/8 46/106/46 78/103/78
f  25/32/25 79/107/79 80/108/80
f  80/108/80 57/71/57 25/32/25
f  81/109/81 78/110/78 46/68/46
f  46/68/46 45/111/45 81/109/81
f  26/112/26 58/113/58 82/114/82
f  82/114/82 22/115/22 26/112/26
f  22/115/22 82/114/82 71/116/71
f  71/116/71 23/117/23 22/115/22
f  14/118/14 76/119/76 60/74/60
f  60/74/60 19/39/19 14/118/14
f  83/120/83 71/116/71 82/114/82
f  82/114/82 84/121/84 83/120/83
f  65/122/65 83/120/83 84/121/84
f  84/121/84 51/63/51 65/122/65
f  85/123/85 75/98/75 74/97/74
f  74/97/74 86/124/86 85/123/85
f  87/125/87 78/110/78 81/109/81
f  81/109/81 88/126/88 87/125/87
f  89/127/89 73/128/73 62/129/62
f  62/129/62 61/130/61 89/127/89
f  10/131/10 89/127/89 61/130/61
f  61/130/61 55/69/55 10/131/10
f  86/132/86 74/133/74 49/60/49
f  49/60/49 90/134/90 86/132/86
f  57/135/57 86/132/86 90/134/90
f  90/134/90 58/113/58 57/135/57
f  91/136/91 38/49/38 72/95/72
f  72/95/72 92/137/92 91/136/91
f  43/54/43 91/138/91 92/139/92
f  92/139/92 44/55/44 43/54/43
f  92/139/92 72/140/72 71/141/71
f  71/141/71 83/142/83 92/139/92
f  44/55/44 92/139/92 83/142/83
f  83/142/83 65/79/65 44/55/44
f  93/143/93 59/73/59 60/74/60
f  60/74/60 94/144/94 93/143/93
f  9/11/9 93/143/93 94/144/94
f  94/144/94 7/9/7 9/11/9
f  80/145/80 85/123/85 86/124/86
f  86/124/86 57/146/57 80/145/80
f  55/147/55 61/75/61 64/78/64
f  64/78/64 56/148/56 55/147/55
f  93/143/93 9/11/9 78/110/78
f  78/110/78 87/125/87 93/143/93
f  59/73/59 93/143/93 87/125/87
f  87/125/87 53/65/53 59/73/59
f  95/149/95 39/50/39 38/49/38
f  38/49/38 91/136/91 95/149/95
f  77/150/77 95/149/95 91/136/91
f  91/136/91 43/151/43 77/150/77
f  53/65/53 87/125/87 88/126/88
f  88/126/88 54/66/54 53/65/53
f  84/121/84 82/114/82 58/113/58
f  58/113/58 90/134/90 84/121/84
f  51/63/51 84/121/84 90/134/90
f  90/134/90 49/60/49 51/63/51
f  96/152/96 76/101/76 73/96/73
f  73/96/73 89/153/89 96/152/96
f  11/15/11 96/152/96 89/153/89
f  89/153/89 10/12/10 11/15/11
f  94/144/94 60/74/60 76/119/76
f  76/119/76 96/154/96 94/144/94
f  7/9/7 94/144/94 96/154/96
f  96/154/96 11/67/11 7/9/7
f  6/6/6 5/5/5 10/131/10
f  10/131/10 55/69/55 6/6/6
f  97/155/97 67/93/67 70/92/70
f  70/92/70 98/156/98 97/155/97
f  35/46/35 97/155/97 98/156/98
f  98/156/98 37/48/37 35/46/35
f  99/157/99 17/158/17 16/25/16
f  16/25/16 100/159/100 99/157/99
f  48/59/48 99/157/99 100/159/100
f  100/159/100 47/58/47 48/59/48
f  101/160/101 45/56/45 17/22/17
f  17/22/17 99/161/99 101/160/101
f  40/51/40 101/160/101 99/161/99
f  99/161/99 48/91/48 40/51/40
f  102/162/102 68/89/68 67/88/67
f  67/88/67 97/163/97 102/162/102
f  36/47/36 102/164/102 97/155/97
f  97/155/97 35/46/35 36/47/36
f  103/165/103 69/90/69 68/89/68
f  68/89/68 102/162/102 103/165/103
f  52/87/52 103/165/103 102/162/102
f  102/162/102 36/84/36 52/87/52
f  100/159/100 16/25/16 18/24/18
f  18/24/18 104/166/104 100/159/100
f  47/58/47 100/159/100 104/166/104
f  104/166/104 79/107/79 47/58/47
f  105/167/105 75/98/75 85/123/85
f  85/123/85 106/168/106 105/167/105
f  63/77/63 105/167/105 106/168/106
f  106/168/106 64/78/64 63/77/63
f  106/168/106 85/123/85 80/145/80
f  80/145/80 107/169/107 106/168/106
f  64/78/64 106/168/106 107/169/107
f  107/169/107 56/148/56 64/78/64
f  108/170/108 39/50/39 95/149/95
f  95/149/95 109/171/109 108/170/108
f  81/109/81 108/172/108 109/173/109
f  109/173/109 88/126/88 81/109/81
f  109/173/109 95/174/95 77/175/77
f  77/175/77 110/176/110 109/173/109
f  88/126/88 109/173/109 110/176/110
f  110/176/110 54/66/54 88/126/88
f  98/156/98 70/92/70 75/98/75
f  75/98/75 105/167/105 98/156/98
f  37/48/37 98/156/98 105/167/105
f  105/167/105 63/77/63 37/48/37
f  107/177/107 80/108/80 79/107/79
f  79/107/79 104/166/104 107/177/107
f  56/70/56 107/177/107 104/166/104
f  104/166/104 18/24/18 56/70/56
f  103/165/103 52/87/52 54/178/54
f  54/178/54 110/179/110 103/165/103
f  69/90/69 103/165/103 110/179/110
f  110/179/110 77/102/77 69/90/69
f  108/170/108 81/180/81 45/56/45
f  45/56/45 101/160/101 108/170/108
f  39/50/39 108/170/108 101/160/101
f  101/160/101 40/51/40 39/50/39
f  79/107/79 25/32/25 21/28/21
f  21/28/21 47/58/47 79/107/79

