# File produced by Open Asset Import Library (http://www.assimp.sf.net)
# (assimp v3.1.193236683)

mtllib monolith_03.mtl

# 82 vertex positions
v  -52.5536 10.4303 -106.335
v  -71.5364 19.1284 -44.68
v  -71.5364 58.4084 -44.68
v  -31.2108 52.1441 -93.7399
v  -52.5536 -18.2474 -106.335
v  -59.8609 -12.4257 -44.6799
v  -16.7755 52.1295 -110.062
v  -26.4035 75.881 -90.0776
v  -15.4824 79.965 -104.714
v  -17.2725 -29.7689 -125.81
v  -17.1588 3.37818 -126.087
v  46.8221 -21.1812 -61.0485
v  47.8536 -20.1782 -111.655
v  48.1957 8.42312 -112.304
v  54.249 14.9273 -68.9732
v  -59.8565 23.9657 -3.33786e-06
v  -59.6201 45.4479 52.0257
v  -59.6233 72.0034 51.9979
v  -59.8565 64.4926 -1.04904e-05
v  -47.2288 -9.86964 1.43051e-06
v  -46.9697 11.0461 50.1369
v  27.7375 50.9865 -97.1934
v  54.2175 53.9817 -68.8681
v  -41.957 48.7442 120.624
v  -41.957 73.8266 120.624
v  -43.1899 14.0217 110.059
v  -43.8874 113.236 104.081
v  -44.3637 121.148 50
v  25.5285 75.8822 -90.0751
v  41.619 111.918 -45.5831
v  46.7703 44.8188 120.624
v  48.1476 41.4162 56.1988
v  44.5819 80.4474 65.2621
v  28.1361 82.2134 111.096
v  47.9865 -6.49259 -10.4171
v  57.5292 29.3528 -14.0717
v  45.6655 12.7654 51.8504
v  -3.45533 137.087 -1.55191
v  -10.1043 116.518 -54.5884
v  -44.3637 96.0532 -50
v  -44.3637 117.219 -1.90735e-05
v  7.09998 104.395 98.2567
v  19.5058 105.482 60.9896
v  1.01797 119.591 66.2926
v  -5.15501 115.336 114.748
v  17.099 10.0543 128.819
v  45.846 16.2367 112.704
v  18.4141 45.6227 139.061
v  53.244 126.393 1.40368
v  28.2869 139.642 -0.941226
v  -15.2457 -20.5603 -6.19072
v  -15.4475 5.66742 58.222
v  -13.1858 9.30087 127.919
v  15.113 79.9658 -104.712
v  21.2417 121.666 -53.1638
v  13.4456 51.5361 -111.833
v  -23.1388 -28.8598 -60.7282
v  6.91761 84.1783 131.574
v  70.828 62.1338 -6.87231
v  -21.9798 80.7206 135.502
v  -36.38 120.752 118.318
v  6.87859 -31.3532 -65.3494
v  12.5994 -30.3433 -127.393
v  14.958 -19.5249 -9.5141
v  14.75 6.22789 58.7806
v  -28.6899 126.878 61.1809
v  12.8447 2.78043 -127.864
v  -11.9705 46.9669 139.061
v  -7.53109 82.4495 133.538
v  3.22179 46.2948 139.061
v  -8.12797 -30.4951 -63.2425
v  -0.143863 -20.4677 -8.0769
v  -2.33657 -30.0561 -126.602
v  -0.348751 5.94765 58.5013
v  1.95658 9.67757 128.369
v  -13.8359 123.235 63.7368
v  -20.7675 118.044 116.533
v  -0.184681 79.9654 -104.713
v  -1.66498 51.8328 -110.947
v  5.67351 120.16 -53.5642
v  12.47 139.133 -1.52022
v  -2.15707 3.0793 -126.976

# 131 UV coordinates
vt 0.283531 0.544337 0
vt 0.221136 0.607766 0
vt 0.152476 0.607766 0
vt 0.206591 0.451394 0
vt 0.718633 0.90459 0
vt 0.726097 0.784417 0
vt 0.793424 0.772297 0
vt 0.771601 0.902406 0
vt 0.221205 0.39509 0
vt 0.163618 0.430241 0
vt 0.16911 0.388248 0
vt 0.375224 0.401335 0
vt 0.333658 0.544337 0
vt 0.317502 0.40093 0
vt 1 0.357824 0
vt 0.978191 0.450538 0
vt 0.927509 0.441815 0
vt 0.923919 0.35781 0
vt 0.786824 0.699293 0
vt 0.818768 0.601956 0
vt 0.867823 0.599982 0
vt 0.861679 0.696207 0
vt 0.714546 0.71238 0
vt 0.7457 0.618587 0
vt 0.273413 0.0860112 0
vt 0.313629 0.12287 0
vt 0.224145 0.204784 0
vt 0.205067 0.0861157 0
vt 0.801214 0.489961 0
vt 0.847542 0.488051 0
vt 0.739569 0.511054 0
vt 0.92423 0.513937 0
vt 0.947063 0.612624 0
vt 0.175176 0.212179 0
vt 0.0847663 0.132869 0
vt 0.641979 0.904673 0
vt 0.536804 0.900161 0
vt 0.531514 0.847758 0
vt 0.630193 0.798266 0
vt 0.991423 0.259016 0
vt 0.914511 0.250574 0
vt 0.983873 0.138223 0
vt 0.932048 0.119617 0
vt 5.22266e-05 0.310509 0
vt 0.0714842 0.352431 0
vt 0.0964316 0.495073 0
vt 0.0245923 0.481872 0
vt 0.626577 0.699235 0
vt 0.546156 0.733432 0
vt 0.57361 0.655507 0
vt 0.664948 0.648478 0
vt 0.947063 0.705087 0
vt 0.194614 0.881763 0
vt 0.17845 0.997355 0
vt 0.123627 1 0
vt 0.126307 0.885846 0
vt 0.383981 0.815531 0
vt 0.409296 0.714656 0
vt 0.438202 0.341227 0
vt 0.437388 0.242008 0
vt 0.573275 0.227834 0
vt 0.572049 0.355114 0
vt 0.453925 0.453553 0
vt 0.58127 0.485787 0
vt 0.17592 0.259778 0
vt 0.0684716 0.220434 0
vt 0.230204 0.26866 0
vt 0.383981 0.158035 0
vt 0.540054 0.123947 0
vt 0.694526 0.726994 0
vt 1 0.0247025 0
vt 0.951722 0 0
vt 0.38581 0.943584 0
vt 0.151314 0 0
vt 0.0293087 0.0716494 0
vt 0.855754 0.344221 0
vt 0.841867 0.222024 0
vt 0.872014 0.0905757 0
vt 0.865975 0.769306 0
vt 0.915227 0.798862 0
vt 0.0891044 0.624714 0
vt 0.0699007 0.711543 0
vt 0 0.642083 0
vt 0.0174915 0.607766 0
vt 0.667578 0.115013 0
vt 0.692218 0 0
vt 0.841867 0.0326115 0
vt 0.837208 0.126417 0
vt 0.701581 0.222326 0
vt 0.841867 0.224785 0
vt 0.709899 0.488051 0
vt 0.700309 0.356688 0
vt 0.831656 0.346056 0
vt 0.832086 0.46021 0
vt 0.714546 0.535556 0
vt 0.605494 0.544074 0
vt 0.614705 0.49386 0
vt 0.707557 0.514847 0
vt 0.714546 0.809591 0
vt 0.363095 0.124135 0
vt 0.383981 0.276322 0
vt 0.326465 0.275416 0
vt 0.458051 0.607668 0
vt 0.535541 0.488051 0
vt 0.00222813 0.177063 0
vt 0.202945 0.623685 0
vt 0.202945 0.754662 0
vt 0.130616 0.75832 0
vt 0.136208 0.627605 0
vt 0.0636378 0.7714 0
vt 0.128461 0.822083 0
vt 0.057375 0.831257 0
vt 0.603826 0.11899 0
vt 0.637429 0.224541 0
vt 0.628773 0.00136825 0
vt 0.565329 0.00273654 0
vt 0.636179 0.355901 0
vt 0.645585 0.486919 0
vt 0.589552 0.59979 0
vt 0.689747 0.592017 0
vt 0.00178664 0.707377 0
vt 0.00357324 0.772671 0
vt 0.172515 0.324013 0
vt 0.225705 0.331875 0
vt 0.0679168 0.28591 0
vt 0 0.24363 0
vt 0.432642 0.660469 0
vt 0.198779 0.818212 0
vt 0.321984 0.338173 0
vt 0.379602 0.338828 0
vt 0.415361 0.0418098 0

# 82 vertex normals
vn -0.851296 0.0643385 -0.520726
vn -0.998518 -0.0468423 -0.0277185
vn -0.966997 0.233243 -0.102543
vn -0.700371 0.32076 -0.637647
vn -0.801493 -0.459168 -0.383111
vn -0.871091 -0.488238 0.0531362
vn -0.41611 0.288952 -0.862183
vn -0.699799 0.428577 -0.571492
vn -0.439414 0.490366 -0.752633
vn -0.320211 -0.666725 -0.67301
vn -0.298242 0.168984 -0.939412
vn 0.846517 -0.531089 0.0368031
vn 0.854358 -0.396594 -0.335837
vn 0.889696 0.0731236 -0.450659
vn 0.988051 -0.0728314 -0.135836
vn -0.966859 -0.180464 0.180601
vn -0.986159 -0.104491 0.128736
vn -0.988992 0.115638 0.0923207
vn -0.982905 0.177131 0.050227
vn -0.688228 -0.678197 0.257663
vn -0.811772 -0.546071 0.206962
vn 0.695603 0.308571 -0.648784
vn 0.927094 0.152982 -0.342189
vn -0.86148 -0.112944 0.495071
vn -0.885127 0.0673815 0.460446
vn -0.797993 -0.493314 0.34619
vn -0.8827 0.383626 0.271426
vn -0.853936 0.518546 0.0436295
vn 0.711462 0.361829 -0.602413
vn 0.747264 0.508727 -0.427543
vn 0.934484 0.0724975 0.348545
vn 0.988021 -0.0615355 0.141522
vn 0.918715 0.287357 0.270903
vn 0.760739 0.512869 0.397796
vn 0.856583 -0.493741 0.149951
vn 0.980139 -0.191188 0.0526831
vn 0.884229 -0.447265 0.134513
vn -0.200321 0.975014 -0.0960154
vn -0.332958 0.82953 -0.448351
vn -0.763626 0.550928 -0.336681
vn -0.79755 0.596399 -0.0906702
vn 0.683331 0.676654 0.274223
vn 0.655628 0.672624 0.343116
vn 0.395648 0.880758 0.260247
vn 0.389442 0.775595 0.496777
vn 0.236965 -0.748439 0.619425
vn 0.880276 -0.394667 0.263349
vn 0.389779 0.0459254 0.919763
vn 0.851615 0.521918 0.0485101
vn 0.370229 0.927816 0.0456896
vn -0.127054 -0.954062 0.271337
vn -0.0986724 -0.971828 0.21404
vn -0.238954 -0.745729 0.621923
vn 0.417593 0.46728 -0.779272
vn 0.306037 0.806631 -0.505656
vn 0.334866 0.293915 -0.895253
vn -0.220645 -0.971652 0.0849027
vn 0.429092 0.475804 0.767783
vn 0.9976 0.0606036 0.033494
vn -0.315178 0.190415 0.929734
vn -0.501427 0.646115 0.575418
vn 0.113399 -0.989335 0.0914164
vn 0.211291 -0.686241 -0.69601
vn 0.185927 -0.944578 0.270563
vn 0.154521 -0.96854 0.195074
vn -0.23369 0.969529 0.0735024
vn 0.205354 0.165617 -0.964573
vn -0.220907 -0.0912412 0.971018
vn 0.0932996 0.321701 0.942233
vn 0.0215281 -0.0535202 0.998335
vn -0.0294335 -0.995959 0.0848451
vn 0.0227658 -0.961337 0.274432
vn -0.0744061 -0.705619 -0.704674
vn 0.0312885 -0.976684 0.21239
vn 0.00206379 -0.783853 0.620942
vn 0.122802 0.976261 0.178423
vn 0.182757 0.806292 0.562577
vn -0.0431019 0.537722 -0.84202
vn -0.0380206 0.264844 -0.963541
vn -0.0827361 0.876318 -0.474575
vn -0.0187091 0.999241 -0.0341768
vn -0.0536646 0.152722 -0.986811

# Mesh 'Cube_Cube' with 160 faces
g Cube_Cube
usemtl Material
f  1/1/1 2/2/2 3/3/3
f  3/3/3 4/4/4 1/1/1
f  5/5/5 6/6/6 2/7/2
f  2/7/2 1/8/1 5/5/5
f  7/9/7 4/4/4 8/10/8
f  8/10/8 9/11/9 7/9/7
f  10/12/10 5/13/5 1/1/1
f  1/1/1 11/14/11 10/12/10
f  12/15/12 13/16/13 14/17/14
f  14/17/14 15/18/15 12/15/12
f  16/19/16 17/20/17 18/21/18
f  18/21/18 19/22/19 16/19/16
f  20/23/20 21/24/21 17/20/17
f  17/20/17 16/19/16 20/23/20
f  15/25/15 14/26/14 22/27/22
f  22/27/22 23/28/23 15/25/15
f  17/20/17 24/29/24 25/30/25
f  25/30/25 18/21/18 17/20/17
f  21/24/21 26/31/26 24/29/24
f  24/29/24 17/20/17 21/24/21
f  18/21/18 25/30/25 27/32/27
f  27/32/27 28/33/28 18/21/18
f  23/28/23 22/27/22 29/34/29
f  29/34/29 30/35/30 23/28/23
f  31/36/31 32/37/32 33/38/33
f  33/38/33 34/39/34 31/36/31
f  35/40/35 12/15/12 15/18/15
f  15/18/15 36/41/36 35/40/35
f  37/42/37 35/40/35 36/41/36
f  36/41/36 32/43/32 37/42/37
f  38/44/38 39/45/39 40/46/40
f  40/46/40 41/47/41 38/44/38
f  42/48/42 43/49/43 44/50/44
f  44/50/44 45/51/45 42/48/42
f  19/22/19 18/21/18 28/33/28
f  28/33/28 41/52/41 19/22/19
f  6/6/6 20/23/20 16/19/16
f  16/19/16 2/7/2 6/6/6
f  46/53/46 47/54/47 31/55/31
f  31/55/31 48/56/48 46/53/46
f  43/49/43 49/57/49 50/58/50
f  50/58/50 44/50/44 43/49/43
f  11/14/11 1/1/1 4/4/4
f  4/4/4 7/9/7 11/14/11
f  4/4/4 3/3/3 40/46/40
f  40/46/40 8/10/8 4/4/4
f  34/39/34 33/38/33 43/49/43
f  43/49/43 42/48/42 34/39/34
f  21/59/21 20/60/20 51/61/51
f  51/61/51 52/62/52 21/59/21
f  26/63/26 21/59/21 52/62/52
f  52/62/52 53/64/53 26/63/26
f  30/35/30 29/34/29 54/65/54
f  54/65/54 55/66/55 30/35/30
f  22/27/22 56/67/56 54/65/54
f  54/65/54 29/34/29 22/27/22
f  20/60/20 6/68/6 57/69/57
f  57/69/57 51/61/51 20/60/20
f  58/70/58 34/39/34 42/48/42
f  42/48/42 45/51/45 58/70/58
f  47/71/47 37/42/37 32/43/32
f  32/43/32 31/72/31 47/71/47
f  33/38/33 59/73/59 49/57/49
f  49/57/49 43/49/43 33/38/33
f  59/74/59 23/28/23 30/35/30
f  30/35/30 49/75/49 59/74/59
f  36/41/36 15/18/15 23/76/23
f  23/76/23 59/77/59 36/41/36
f  32/43/32 36/41/36 59/77/59
f  59/77/59 33/78/33 32/43/32
f  2/7/2 16/19/16 19/22/19
f  19/22/19 3/79/3 2/7/2
f  3/79/3 19/22/19 41/52/41
f  41/52/41 40/80/40 3/79/3
f  25/81/25 60/82/60 61/83/61
f  61/83/61 27/84/27 25/81/25
f  62/85/62 63/86/63 13/87/13
f  13/87/13 12/88/12 62/85/62
f  64/89/64 62/85/62 12/88/12
f  12/88/12 35/90/35 64/89/64
f  46/91/46 65/92/65 37/93/37
f  37/93/37 47/94/47 46/91/46
f  61/95/61 66/96/66 28/97/28
f  28/97/28 27/98/27 61/95/61
f  48/99/48 31/36/31 34/39/34
f  34/39/34 58/70/58 48/99/48
f  13/100/13 63/101/63 67/102/67
f  67/102/67 14/26/14 13/100/13
f  65/92/65 64/89/64 35/90/35
f  35/90/35 37/93/37 65/92/65
f  39/45/39 9/11/9 8/10/8
f  8/10/8 40/46/40 39/45/39
f  66/96/66 38/103/38 41/104/41
f  41/104/41 28/97/28 66/96/66
f  49/75/49 30/35/30 55/66/55
f  55/66/55 50/105/50 49/75/49
f  26/106/26 53/107/53 68/108/68
f  68/108/68 24/109/24 26/106/26
f  24/109/24 68/108/68 60/82/60
f  60/82/60 25/81/25 24/109/24
f  14/26/14 67/102/67 56/67/56
f  56/67/56 22/27/22 14/26/14
f  69/110/69 60/82/60 68/108/68
f  68/108/68 70/111/70 69/110/69
f  58/112/58 69/110/69 70/111/70
f  70/111/70 48/56/48 58/112/58
f  71/113/71 62/85/62 64/89/64
f  64/89/64 72/114/72 71/113/71
f  57/69/57 71/113/71 72/114/72
f  72/114/72 51/61/51 57/69/57
f  73/115/73 63/86/63 62/85/62
f  62/85/62 71/113/71 73/115/73
f  10/116/10 73/115/73 71/113/71
f  71/113/71 57/69/57 10/116/10
f  74/117/74 65/92/65 46/91/46
f  46/91/46 75/118/75 74/117/74
f  52/62/52 74/117/74 75/118/75
f  75/118/75 53/64/53 52/62/52
f  76/119/76 66/96/66 61/95/61
f  61/95/61 77/120/77 76/119/76
f  44/50/44 76/119/76 77/120/77
f  77/120/77 45/51/45 44/50/44
f  77/121/77 61/83/61 60/82/60
f  60/82/60 69/110/69 77/121/77
f  45/122/45 77/121/77 69/110/69
f  69/110/69 58/112/58 45/122/45
f  78/123/78 54/65/54 56/67/56
f  56/67/56 79/124/79 78/123/78
f  9/11/9 78/123/78 79/124/79
f  79/124/79 7/9/7 9/11/9
f  72/114/72 64/89/64 65/92/65
f  65/92/65 74/117/74 72/114/72
f  51/61/51 72/114/72 74/117/74
f  74/117/74 52/62/52 51/61/51
f  78/123/78 9/11/9 39/45/39
f  39/45/39 80/125/80 78/123/78
f  54/65/54 78/123/78 80/125/80
f  80/125/80 55/66/55 54/65/54
f  80/125/80 39/45/39 38/44/38
f  38/44/38 81/126/81 80/125/80
f  55/66/55 80/125/80 81/126/81
f  81/126/81 50/105/50 55/66/55
f  81/127/81 38/103/38 66/96/66
f  66/96/66 76/119/76 81/127/81
f  50/58/50 81/127/81 76/119/76
f  76/119/76 44/50/44 50/58/50
f  70/111/70 68/108/68 53/107/53
f  53/107/53 75/128/75 70/111/70
f  48/56/48 70/111/70 75/128/75
f  75/128/75 46/53/46 48/56/48
f  82/129/82 67/102/67 63/101/63
f  63/101/63 73/130/73 82/129/82
f  11/14/11 82/129/82 73/130/73
f  73/130/73 10/12/10 11/14/11
f  79/124/79 56/67/56 67/102/67
f  67/102/67 82/129/82 79/124/79
f  7/9/7 79/124/79 82/129/82
f  82/129/82 11/14/11 7/9/7
f  6/68/6 5/131/5 10/116/10
f  10/116/10 57/69/57 6/68/6

