# File produced by Open Asset Import Library (http://www.assimp.sf.net)
# (assimp v3.1.193236683)

mtllib monolith_07.mtl

# 114 vertex positions
v  -66.4331 125.14 138.28
v  -89.4592 152.428 76.1683
v  -155.792 145.728 69.3575
v  -129.261 110.77 126.779
v  -153.059 52.8508 119.16
v  -68.4303 63.8999 178.837
v  -170.107 66.7507 -160.352
v  -175.61 103.958 -87.8404
v  -157.936 172.06 -68.3855
v  -137.606 135.061 -129.729
v  144.923 178.605 -92.2773
v  124.474 147.998 -167.834
v  63.0463 167.66 -177.455
v  84.1202 257.144 -90.8415
v  171.067 67.2765 124.114
v  149.81 99.6762 49.9963
v  161.81 223.241 46.7616
v  154.969 183.286 139.318
v  41.0581 271.983 -87.1313
v  18.2437 171.117 -167.325
v  -20.8117 164.884 -143.491
v  -16.941 250.92 -80.2822
v  173.123 84.1921 -71.2528
v  122.238 64.3434 -162.707
v  171.46 104.201 -6.39054
v  144.147 212.204 -31.4296
v  67.5515 -192.866 -125.728
v  10.2891 -189.734 -129.472
v  -24.7548 -78.3602 -156.189
v  17.9033 -88.431 -169.943
v  -40.0326 -210.391 -26.5581
v  4.60314 -205.194 -60.5964
v  113.55 -216.647 -51.0503
v  109.245 -201.378 -5.03908
v  -40.2547 -199.308 47.0492
v  104.58 -189.651 65.0773
v  -174.86 89.7036 17.7329
v  -185.508 121.789 -48.88
v  -159.882 176.139 7.57395
v  -91.5586 178.603 -72.9244
v  -73.3388 135.809 -129.096
v  -92.8332 183.716 5.84563
v  -170.874 -155.194 -79.5257
v  -181.317 -174.308 -9.36886
v  -167.131 -75.845 -8.22523
v  -177.004 -70.8349 -81.5982
v  -173.25 23.2921 -62.999
v  -183.98 0.0488892 -105.019
v  -173.906 -167.868 66.8371
v  -158.965 -72.4511 56.9266
v  -170.338 10.3598 12.3256
v  -151.079 -140.627 138.077
v  -143.501 -69.3262 125.789
v  -154.02 -10.6263 124.016
v  214.513 -145.839 42.7789
v  204.687 -168.393 -20.6012
v  203.831 -100.548 -17.0251
v  220.364 -94.9005 36.3437
v  219.191 -16.5442 25.3602
v  206.584 -3.79351 60.3546
v  193.234 -160.753 -62.8517
v  193.257 -83.2195 -55.901
v  212.987 -12.9923 -29.9075
v  143.698 -144.318 -134.633
v  129.679 -73.2017 -139.265
v  120.123 -7.87901 -159.905
v  -65.0065 19.4932 -169.691
v  -11.8853 -1.72142 -190.698
v  -63.9135 93.4436 -167.062
v  -11.2169 76.0594 -190.02
v  210.022 -124.652 110.087
v  216.406 -55.0034 105.069
v  190.373 17.5885 110.515
v  -146.684 -131.883 -134.257
v  -170.413 -66.8198 -146.482
v  -182.582 -12.1382 -170.102
v  -89.1958 -151.852 129.003
v  -79.8051 -71.3801 143.223
v  -68.5019 -3.04672 178.284
v  14.3285 11.7198 193.252
v  68.4386 36.3818 166.955
v  60.2016 87.0201 169.503
v  9.47097 74.0008 195.98
v  -2.93767 -58.1246 142.09
v  89.4972 -43.111 152.72
v  108.183 38.4031 148.457
v  100.318 85.684 151.906
v  -14.3198 -145.331 111.193
v  112.08 -147.619 139.879
v  155.601 -141.972 135.935
v  147.79 -179.685 62.5602
v  -138.314 25.2958 -163.688
v  -124.404 101.162 -155.798
v  134.263 -42.8663 145.01
v  -98.6781 -69.3972 -148.349
v  35.1196 -9.72328 -190.306
v  35.0648 68.2355 -191.088
v  -83.8982 -143.585 -144.574
v  109.225 228.371 67.6595
v  104.178 186.066 154.266
v  63.1843 217.048 77.2867
v  38.4572 286.344 -6.63688
v  -17.4888 260.214 2.12127
v  -11.5148 169.333 77.4008
v  62.9661 -88.7879 -167.948
v  83.3396 276.08 -15.8471
v  152.487 -192.059 -7.05901
v  153.312 -201.552 -53.0526
v  -124.253 -207.142 -29.4613
v  -119.697 -199.228 47.2858
v  -100.703 -169.578 -86.598
v  106.86 -177.285 -127.248
v  58.9469 173.007 158.978
v  1.64312 133.785 151.404

# 160 UV coordinates
vt 0.5625 0.25 0
vt 0.5625 0.1875 0
vt 0.625 0.1875 0
vt 0.625 0.25 0
vt 0.5625 0.5 0
vt 0.5625 0.4375 0
vt 0.625 0.4375 0
vt 0.625 0.5 0
vt 0.5625 0.75 0
vt 0.5625 0.6875 0
vt 0.625 0.6875 0
vt 0.625 0.75 0
vt 0.375 0.0625 0
vt 0.375 0 0
vt 0.42145 0 0
vt 0.424083 0.0625 0
vt 0.3125 0.75 0
vt 0.3125 0.6875 0
vt 0.375 0.6875 0
vt 0.375 0.75 0
vt 0.454445 0.0625 0
vt 0.458782 0 0
vt 0.5 0 0
vt 0.5 0.0625 0
vt 0.3125 0.5625 0
vt 0.3125 0.5 0
vt 0.375 0.5 0
vt 0.375 0.5625 0
vt 0.3125 0.625 0
vt 0.375 0.625 0
vt 0.625 0.671478 0
vt 0.625 0.625 0
vt 0.6875 0.625 0
vt 0.6875 0.667383 0
vt 0.5 0.875 0
vt 0.5 0.8125 0
vt 0.552881 0.8125 0
vt 0.555407 0.875 0
vt 0.5 0.9375 0
vt 0.555407 0.875 0
vt 0.555191 0.9375 0
vt 0.5625 0.5625 0
vt 0.625 0.5625 0
vt 0.5625 0.625 0
vt 0.5625 0.0625 0
vt 0.5625 0 0
vt 0.625 0 0
vt 0.625 0.0625 0
vt 0.5625 0.125 0
vt 0.625 0.125 0
vt 0.4375 0.625 0
vt 0.4375 0.6875 0
vt 0.5 0.625 0
vt 0.5 0.6875 0
vt 0.4375 0.5625 0
vt 0.5 0.5625 0
vt 0.4375 0.5 0
vt 0.5 0.5 0
vt 0.125 0.6875 0
vt 0.125 0.625 0
vt 0.1875 0.625 0
vt 0.1875 0.6875 0
vt 0.25 0.625 0
vt 0.25 0.6875 0
vt 0.125 0.5625 0
vt 0.1875 0.5625 0
vt 0.25 0.5625 0
vt 0.125 0.5 0
vt 0.1875 0.5 0
vt 0.25 0.5 0
vt 0.5 0.75 0
vt 0.546478 0.75 0
vt 0.6875 0.667383 0
vt 0.75 0.625 0
vt 0.75 0.670969 0
vt 0.8125 0.625 0
vt 0.8125 0.671264 0
vt 0.125 0.75 0
vt 0.1875 0.75 0
vt 0.25 0.75 0
vt 0.4375 0.75 0
vt 0.375 0.4375 0
vt 0.4375 0.4375 0
vt 0.5 0.4375 0
vt 0.5 0.375 0
vt 0.5 0.326024 0
vt 0.5625 0.327077 0
vt 0.5625 0.375 0
vt 0.4375 0.375 0
vt 0.4375 0.323216 0
vt 0.5 0.326024 0
vt 0.5 0.300473 0
vt 0.5 0.25 0
vt 0.5625 0.298668 0
vt 0.5 1 0
vt 0.555191 0.9375 0
vt 0.554066 1 0
vt 0.57812 1 0
vt 0.575583 0.9375 0
vt 0.625 0.9375 0
vt 0.625 1 0
vt 0.375 0.375 0
vt 0.75 0.5625 0
vt 0.75 0.5 0
vt 0.8125 0.5 0
vt 0.8125 0.5625 0
vt 0.4375 0.3009 0
vt 0.4375 0.25 0
vt 0.6875 0.5625 0
vt 0.6875 0.5 0
vt 0.75 0.75 0
vt 0.75 0.700521 0
vt 0.8125 0.700212 0
vt 0.8125 0.75 0
vt 0.375 0.25 0
vt 0.375 0.1875 0
vt 0.419714 0.1875 0
vt 0.419094 0.25 0
vt 0.450673 0.1875 0
vt 0.454676 0.125 0
vt 0.5 0.125 0
vt 0.5 0.1875 0
vt 0.6875 0.75 0
vt 0.6875 0.702541 0
vt 0.75 0.700521 0
vt 0.454676 0.125 0
vt 0.375 0.125 0
vt 0.422702 0.125 0
vt 0.419714 0.1875 0
vt 0.8125 0.671264 0
vt 0.875 0.625 0
vt 0.875 0.666218 0
vt 0.578887 0.875 0
vt 0.579905 0.8125 0
vt 0.625 0.8125 0
vt 0.625 0.875 0
vt 0.375 0.9375 0
vt 0.375 0.875 0
vt 0.4375 0.875 0
vt 0.4375 0.9375 0
vt 0.424083 0.0625 0
vt 0.422702 0.125 0
vt 0.375 0.8125 0
vt 0.4375 0.8125 0
vt 0.581791 0.75 0
vt 0.875 0.5 0
vt 0.875 0.5625 0
vt 0.875 0.70355 0
vt 0.875 0.75 0
vt 0.375 1 0
vt 0.4375 1 0
vt 0.375 0.320934 0
vt 0.453605 0.25 0
vt 0.5 0.25 0
vt 0.625 0.294094 0
vt 0.625 0.375 0
vt 0.625 0.328605 0
vt 0.375 0.29688 0
vt 0.4375 0.3009 0
vt 0.625 0.706791 0

# 114 vertex normals
vn -0.282334 0.684914 0.671699
vn -0.235148 0.827916 0.509177
vn -0.666963 0.59915 0.442923
vn -0.573819 0.496118 0.651612
vn -0.829846 0.104315 0.548155
vn -0.366386 0.223128 0.903314
vn -0.614577 0.266987 -0.742302
vn -0.951308 0.246227 -0.185433
vn -0.537504 0.784892 -0.308275
vn -0.396751 0.653724 -0.644386
vn 0.841645 0.406875 -0.355085
vn 0.631957 0.252728 -0.732639
vn 0.197517 0.405257 -0.89261
vn 0.407649 0.777361 -0.479095
vn 0.794409 0.122778 0.594845
vn 0.973408 0.222271 0.0554227
vn 0.810412 0.574162 0.116492
vn 0.704317 0.399341 0.586911
vn -0.115209 0.876963 -0.466544
vn -0.205913 0.478357 -0.853683
vn -0.422264 0.522763 -0.740548
vn -0.531548 0.746706 -0.399859
vn 0.935482 0.174846 -0.307087
vn 0.626671 0.0245369 -0.778898
vn 0.961927 0.271924 0.027467
vn 0.85273 0.514977 -0.0874674
vn 0.0354632 -0.752937 -0.657137
vn -0.166943 -0.727895 -0.665055
vn -0.190138 -0.260272 -0.946629
vn -0.108558 -0.325033 -0.939451
vn -0.0419021 -0.99271 -0.11301
vn -0.108098 -0.978622 -0.174965
vn 0.167826 -0.981444 -0.0927484
vn 0.132637 -0.974756 0.179606
vn 0.0213637 -0.936586 0.349786
vn 0.0870097 -0.928114 0.361986
vn -0.981903 0.0511202 0.182354
vn -0.980008 0.198345 -0.0156259
vn -0.61163 0.770969 0.177528
vn -0.388933 0.833167 -0.393145
vn -0.297193 0.643247 -0.705627
vn -0.368372 0.892271 0.261064
vn -0.786115 -0.517454 -0.338031
vn -0.866105 -0.497463 -0.0489222
vn -0.996292 0.034456 0.0788305
vn -0.996453 -0.0784344 -0.0304887
vn -0.996059 -0.0404076 0.0789535
vn -0.999917 -0.00921667 0.00900304
vn -0.8144 -0.48513 0.318436
vn -0.9883 0.036806 0.148018
vn -0.991869 -0.0637543 0.110143
vn -0.575813 -0.30605 0.758137
vn -0.721687 -0.0545072 0.69007
vn -0.823389 -0.0908568 0.560157
vn 0.856401 -0.505765 0.103827
vn 0.836612 -0.543052 -0.0719328
vn 0.979659 -0.0386676 -0.196908
vn 0.999554 -0.008881 -0.0285046
vn 0.987375 0.158087 -0.00997967
vn 0.945696 0.309861 0.0982105
vn 0.831952 -0.383199 -0.401266
vn 0.900246 -0.0178536 -0.435016
vn 0.948009 0.07999 -0.308027
vn 0.582648 -0.259294 -0.770252
vn 0.604334 -0.0812718 -0.792575
vn 0.594239 -0.055362 -0.802381
vn -0.241805 -0.0816395 -0.966884
vn -0.226083 -0.153235 -0.96198
vn -0.292102 0.313191 -0.903652
vn -0.233017 0.154917 -0.960054
vn 0.75114 -0.364553 0.550354
vn 0.852989 0.101813 0.511903
vn 0.81094 0.263629 0.522376
vn -0.501951 -0.493863 -0.710031
vn -0.661847 -0.246995 -0.707779
vn -0.641059 -0.113746 -0.759016
vn 0.000457796 -0.568491 0.82269
vn -0.0874055 -0.263254 0.960759
vn -0.280441 -0.223492 0.93349
vn 0.113898 -0.241438 0.963709
vn 0.354629 -0.0914954 0.93052
vn 0.264787 0.121407 0.956634
vn 0.0226453 0.219434 0.975365
vn 0.0285052 -0.367332 0.929653
vn 0.126443 -0.177044 0.976047
vn 0.375295 -0.00344852 0.926899
vn 0.341084 -0.013642 0.939934
vn 0.00314344 -0.593316 0.804964
vn 0.0409574 -0.548835 0.834927
vn 0.357776 -0.504482 0.785808
vn 0.333398 -0.8931 0.302024
vn -0.0127873 -0.0176705 -0.999762
vn -0.141669 0.403644 -0.903881
vn 0.327381 0.00903389 0.944849
vn -0.0499907 -0.177531 -0.982845
vn 0.155098 -0.126349 -0.979786
vn 0.105841 0.0511806 -0.993065
vn -0.161967 -0.543553 -0.8236
vn 0.198282 0.9019 0.383747
vn 0.158484 0.550925 0.819368
vn -0.220225 0.805305 0.550441
vn -0.128118 0.959722 0.25004
vn -0.49911 0.809582 0.308976
vn -0.369372 0.756171 0.540157
vn 0.186748 -0.256394 -0.94836
vn 0.392506 0.917251 0.0677522
vn 0.392631 -0.905691 0.159891
vn 0.457058 -0.868703 -0.190929
vn -0.269391 -0.9409 -0.20527
vn -0.178688 -0.936289 0.302381
vn -0.250929 -0.863207 -0.438073
vn 0.31722 -0.588844 -0.743394
vn -0.136514 0.578988 0.803826
vn -0.245283 0.647405 0.721597

# Mesh 'Cube_Cube' with 224 faces
g Cube_Cube
usemtl Material
f  1/1/1 2/2/2 3/3/3
f  3/3/3 4/4/4 1/1/1
f  5/5/5 6/6/6 1/7/1
f  1/7/1 4/8/4 5/5/5
f  7/9/7 8/10/8 9/11/9
f  9/11/9 10/12/10 7/9/7
f  11/13/11 12/14/12 13/15/13
f  13/15/13 14/16/14 11/13/11
f  15/17/15 16/18/16 17/19/17
f  17/19/17 18/20/18 15/17/15
f  19/21/19 20/22/20 21/23/21
f  21/23/21 22/24/22 19/21/19
f  23/25/23 24/26/24 12/27/12
f  12/27/12 11/28/11 23/25/23
f  25/29/25 23/25/23 11/28/11
f  11/28/11 26/30/26 25/29/25
f  16/18/16 25/29/25 26/30/26
f  26/30/26 17/19/17 16/18/16
f  27/31/27 28/32/28 29/33/29
f  29/33/29 30/34/30 27/31/27
f  31/35/31 32/36/32 33/37/33
f  33/37/33 34/38/34 31/35/31
f  35/39/35 31/35/31 34/40/34
f  34/40/34 36/41/36 35/39/35
f  37/42/37 5/5/5 4/8/4
f  4/8/4 3/43/3 37/42/37
f  38/44/38 37/42/37 3/43/3
f  3/43/3 39/32/39 38/44/38
f  8/10/8 38/44/38 39/32/39
f  39/32/39 9/11/9 8/10/8
f  40/45/40 41/46/41 10/47/10
f  10/47/10 9/48/9 40/45/40
f  42/49/42 40/45/40 9/48/9
f  9/48/9 39/50/39 42/49/42
f  2/2/2 42/49/42 39/50/39
f  39/50/39 3/3/3 2/2/2
f  43/19/43 44/30/44 45/51/45
f  45/51/45 46/52/46 43/19/43
f  46/52/46 45/51/45 47/53/47
f  47/53/47 48/54/48 46/52/46
f  48/54/48 47/53/47 38/44/38
f  38/44/38 8/10/8 48/54/48
f  44/30/44 49/28/49 50/55/50
f  50/55/50 45/51/45 44/30/44
f  45/51/45 50/55/50 51/56/51
f  51/56/51 47/53/47 45/51/45
f  47/53/47 51/56/51 37/42/37
f  37/42/37 38/44/38 47/53/47
f  49/28/49 52/27/52 53/57/53
f  53/57/53 50/55/50 49/28/49
f  50/55/50 53/57/53 54/58/54
f  54/58/54 51/56/51 50/55/50
f  51/56/51 54/58/54 5/5/5
f  5/5/5 37/42/37 51/56/51
f  55/59/55 56/60/56 57/61/57
f  57/61/57 58/62/58 55/59/55
f  58/62/58 57/61/57 59/63/59
f  59/63/59 60/64/60 58/62/58
f  60/64/60 59/63/59 25/29/25
f  25/29/25 16/18/16 60/64/60
f  56/60/56 61/65/61 62/66/62
f  62/66/62 57/61/57 56/60/56
f  57/61/57 62/66/62 63/67/63
f  63/67/63 59/63/59 57/61/57
f  59/63/59 63/67/63 23/25/23
f  23/25/23 25/29/25 59/63/59
f  61/65/61 64/68/64 65/69/65
f  65/69/65 62/66/62 61/65/61
f  62/66/62 65/69/65 66/70/66
f  66/70/66 63/67/63 62/66/62
f  63/67/63 66/70/66 24/26/24
f  24/26/24 23/25/23 63/67/63
f  32/36/32 28/71/28 27/72/27
f  27/72/27 33/37/33 32/36/32
f  30/73/30 29/33/29 67/74/67
f  67/74/67 68/75/68 30/73/30
f  68/75/68 67/74/67 69/76/69
f  69/76/69 70/77/70 68/75/68
f  71/78/71 55/59/55 58/62/58
f  58/62/58 72/79/72 71/78/71
f  72/79/72 58/62/58 60/64/60
f  60/64/60 73/80/73 72/79/72
f  73/80/73 60/64/60 16/18/16
f  16/18/16 15/17/15 73/80/73
f  74/20/74 43/19/43 46/52/46
f  46/52/46 75/81/75 74/20/74
f  75/81/75 46/52/46 48/54/48
f  48/54/48 76/71/76 75/81/75
f  76/71/76 48/54/48 8/10/8
f  8/10/8 7/9/7 76/71/76
f  52/27/52 77/82/77 78/83/78
f  78/83/78 53/57/53 52/27/52
f  53/57/53 78/83/78 79/84/79
f  79/84/79 54/58/54 53/57/53
f  54/58/54 79/84/79 6/6/6
f  6/6/6 5/5/5 54/58/54
f  80/85/80 81/86/81 82/87/82
f  82/87/82 83/88/83 80/85/80
f  79/84/79 80/85/80 83/88/83
f  83/88/83 6/6/6 79/84/79
f  84/89/84 85/90/85 81/91/81
f  81/91/81 80/85/80 84/89/84
f  86/92/86 73/93/73 15/1/15
f  15/1/15 87/94/87 86/92/86
f  78/83/78 84/89/84 80/85/80
f  80/85/80 79/84/79 78/83/78
f  88/95/88 35/39/35 36/96/36
f  36/96/36 89/97/89 88/95/88
f  90/98/90 91/99/91 55/100/55
f  55/100/55 71/101/71 90/98/90
f  77/82/77 88/102/88 84/89/84
f  84/89/84 78/83/78 77/82/77
f  92/103/92 76/104/76 7/105/7
f  7/105/7 93/106/93 92/103/92
f  67/74/67 92/103/92 93/106/93
f  93/106/93 69/76/69 67/74/67
f  94/107/94 72/108/72 73/93/73
f  73/93/73 86/92/86 94/107/94
f  95/109/95 75/110/75 76/104/76
f  76/104/76 92/103/92 95/109/95
f  29/33/29 95/109/95 92/103/92
f  92/103/92 67/74/67 29/33/29
f  66/111/66 96/112/96 97/113/97
f  97/113/97 24/114/24 66/111/66
f  98/43/98 74/8/74 75/110/75
f  75/110/75 95/109/95 98/43/98
f  28/32/28 98/43/98 95/109/95
f  95/109/95 29/33/29 28/32/28
f  18/115/18 17/116/17 99/117/99
f  99/117/99 100/118/100 18/115/18
f  101/119/101 102/120/102 103/121/103
f  103/121/103 104/122/104 101/119/101
f  65/123/65 105/124/105 96/125/96
f  96/125/96 66/111/66 65/123/65
f  104/122/104 103/121/103 42/49/42
f  42/49/42 2/2/2 104/122/104
f  102/126/102 19/21/19 22/24/22
f  22/24/22 103/121/103 102/126/102
f  17/116/17 26/127/26 106/128/106
f  106/128/106 99/129/99 17/116/17
f  103/121/103 22/24/22 40/45/40
f  40/45/40 42/49/42 103/121/103
f  70/130/70 69/76/69 21/131/21
f  21/131/21 20/132/20 70/130/70
f  107/133/107 108/134/108 61/135/61
f  61/135/61 56/136/56 107/133/107
f  22/24/22 21/23/21 41/46/41
f  41/46/41 40/45/40 22/24/22
f  49/137/49 44/138/44 109/139/109
f  109/139/109 110/140/110 49/137/49
f  110/140/110 109/139/109 31/35/31
f  31/35/31 35/39/35 110/140/110
f  26/127/26 11/13/11 14/141/14
f  14/141/14 106/142/106 26/127/26
f  44/138/44 43/143/43 111/144/111
f  111/144/111 109/139/109 44/138/44
f  109/139/109 111/144/111 32/36/32
f  32/36/32 31/35/31 109/139/109
f  91/99/91 107/133/107 56/136/56
f  56/136/56 55/100/55 91/99/91
f  43/143/43 74/20/74 98/81/98
f  98/81/98 111/144/111 43/143/43
f  111/144/111 98/81/98 28/71/28
f  28/71/28 32/36/32 111/144/111
f  108/134/108 112/145/112 64/12/64
f  64/12/64 61/135/61 108/134/108
f  93/106/93 7/105/7 10/146/10
f  10/146/10 41/147/41 93/106/93
f  69/76/69 93/106/93 41/147/41
f  41/147/41 21/131/21 69/76/69
f  24/114/24 97/113/97 13/148/13
f  13/148/13 12/149/12 24/114/24
f  52/150/52 49/137/49 110/140/110
f  110/140/110 77/151/77 52/150/52
f  77/151/77 110/140/110 35/39/35
f  35/39/35 88/95/88 77/151/77
f  88/102/88 89/152/89 85/90/85
f  85/90/85 84/89/84 88/102/88
f  113/153/113 101/119/101 104/122/104
f  104/122/104 114/154/114 113/153/113
f  87/94/87 15/1/15 18/4/18
f  18/4/18 100/155/100 87/94/87
f  6/6/6 83/88/83 114/156/114
f  114/156/114 1/7/1 6/6/6
f  83/88/83 82/87/82 113/157/113
f  113/157/113 114/156/114 83/88/83
f  90/158/90 71/115/71 72/108/72
f  72/108/72 94/159/94 90/158/90
f  114/154/114 104/122/104 2/2/2
f  2/2/2 1/1/1 114/154/114
f  87/94/87 82/87/82 81/86/81
f  81/86/81 86/92/86 87/94/87
f  86/92/86 81/91/81 85/90/85
f  85/90/85 94/107/94 86/92/86
f  94/159/94 85/90/85 89/152/89
f  89/152/89 90/158/90 94/159/94
f  70/77/70 97/113/97 96/112/96
f  96/112/96 68/75/68 70/77/70
f  68/75/68 96/125/96 105/124/105
f  105/124/105 30/73/30 68/75/68
f  30/34/30 105/124/105 112/160/112
f  112/160/112 27/31/27 30/34/30
f  106/128/106 102/120/102 101/119/101
f  101/119/101 99/129/99 106/128/106
f  14/141/14 19/21/19 102/126/102
f  102/126/102 106/142/106 14/141/14
f  13/15/13 20/22/20 19/21/19
f  19/21/19 14/16/14 13/15/13
f  34/40/34 107/133/107 91/99/91
f  91/99/91 36/41/36 34/40/34
f  33/37/33 108/134/108 107/133/107
f  107/133/107 34/38/34 33/37/33
f  27/72/27 112/145/112 108/134/108
f  108/134/108 33/37/33 27/72/27
f  20/132/20 13/148/13 97/113/97
f  97/113/97 70/130/70 20/132/20
f  36/96/36 91/99/91 90/98/90
f  90/98/90 89/97/89 36/96/36
f  100/155/100 113/157/113 82/87/82
f  82/87/82 87/94/87 100/155/100
f  99/117/99 101/119/101 113/153/113
f  113/153/113 100/118/100 99/117/99
f  64/12/64 112/160/112 105/124/105
f  105/124/105 65/123/65 64/12/64

