# File produced by Open Asset Import Library (http://www.assimp.sf.net)
# (assimp v3.1.193236683)

mtllib terrain_right.mtl

# 24 vertex positions
v  -7.62939e-06 81.4215 93.4388
v  -219.93 81.4215 -93.4389
v  -219.93 -81.4215 -93.4388
v  -7.62939e-06 -81.4215 93.4389
v  -7.62939e-06 -81.4214 467.194
v  102.256 -81.4214 280.317
v  467.194 -81.4214 280.317
v  467.194 -81.4214 467.194
v  467.194 81.4215 280.317
v  467.194 81.4216 467.194
v  467.194 -81.4216 -467.194
v  -7.62939e-06 -81.4216 -467.194
v  -7.62939e-06 81.4214 -467.194
v  467.194 81.4214 -467.194
v  102.256 81.4215 280.317
v  -7.62939e-06 81.4216 467.194
v  467.194 81.4214 -280.317
v  -219.93 81.4214 -280.317
v  467.194 81.4215 -93.4389
v  467.194 81.4215 93.4388
v  -219.93 -81.4215 -280.317
v  467.194 -81.4215 -280.317
v  467.194 -81.4215 -93.4388
v  467.194 -81.4215 93.4389

# 60 UV coordinates
vt 0.843868 0.5 0
vt 0.944654 0.5 0
vt 0.944654 1 0
vt 0.843868 1 0
vt 0.214098 0.5 0
vt 0.167238 0.6 0
vt 2.55225e-08 0.6 0
vt 0 0.5 0
vt 0 0 0
vt 0.0856394 0 0
vt 0.0856394 0.5 0
vt 0 0.5 0
vt 0.743082 0.5 0
vt 0.528983 0.5 0
vt 0.528983 5.96046e-08 0
vt 0.743082 0 0
vt 0.828721 0 0
vt 0.91436 0 0
vt 0.91436 0.5 0
vt 0.828721 0.5 0
vt 0.843868 1 0
vt 0.629769 1 0
vt 0.629769 0.5 0
vt 0.843868 0.5 0
vt 0.314885 1 0
vt 0.314885 0.9 0
vt 0.482123 0.9 0
vt 0.528983 1 0
vt 0.314885 0.6 0
vt 0.314885 0.5 0
vt 0.528983 0.5 0
vt 0.629769 0.6 0
vt 0.314885 0.7 0
vt 0.629769 0.7 0
vt 0.314885 0.8 0
vt 0.528983 0.8 0
vt 0.743082 0.5 0
vt 0.743082 4.47035e-08 0
vt 0.428197 0.5 0
vt 0.428197 5.96046e-08 0
vt 0.342557 0 0
vt 0.428197 0 0
vt 0.428197 0.5 0
vt 0.342557 0.5 0
vt 0.256918 0 0
vt 0.256918 0.5 0
vt 0.171279 0 0
vt 0.171279 0.5 0
vt 0.314885 0.9 0
vt 0.214098 1 0
vt 7.65676e-08 1 0
vt 3.82838e-08 0.9 0
vt 0.314885 0.8 0
vt 2.55225e-08 0.8 0
vt 0.214098 0.7 0
vt 2.55225e-08 0.7 0
vt 0.914361 0.5 0
vt 0.914361 0 0
vt 1 0 0
vt 1 0.5 0

# 10 vertex normals
vn -0.647521 1.24153e-07 0.762047
vn 0 -1 1.62921e-07
vn 1 0 0
vn 0 -1.62921e-07 -1
vn -0.877258 7.82052e-08 0.48002
vn 0 1.62921e-07 1
vn 0 1 -1.62921e-07
vn -0.877257 -7.82052e-08 -0.48002
vn -0.647521 -1.24153e-07 -0.762047
vn -1 0 -0

# Mesh 'Cube_Cube' with 44 faces
g Cube_Cube
usemtl Material
f  1/1/1 2/2/1 3/3/1
f  3/3/1 4/4/1 1/1/1
f  5/5/2 6/6/2 7/7/2
f  7/7/2 8/8/2 5/5/2
f  8/9/3 7/10/3 9/11/3
f  9/11/3 10/12/3 8/9/3
f  11/13/4 12/14/4 13/15/4
f  13/15/4 14/16/4 11/13/4
f  15/17/5 1/18/5 4/19/5
f  4/19/5 6/20/5 15/17/5
f  5/21/6 8/22/6 10/23/6
f  10/23/6 16/24/6 5/21/6
f  10/25/7 9/26/7 15/27/7
f  15/27/7 16/28/7 10/25/7
f  17/29/7 14/30/7 13/31/7
f  13/31/7 18/32/7 17/29/7
f  19/33/7 17/29/7 18/32/7
f  18/32/7 2/34/7 19/33/7
f  20/35/7 19/33/7 2/34/7
f  2/34/7 1/36/7 20/35/7
f  9/26/7 20/35/7 1/36/7
f  1/36/7 15/27/7 9/26/7
f  6/20/8 5/37/8 16/38/8
f  16/38/8 15/17/8 6/20/8
f  12/14/9 21/39/9 18/40/9
f  18/40/9 13/15/9 12/14/9
f  22/41/3 11/42/3 14/43/3
f  14/43/3 17/44/3 22/41/3
f  23/45/3 22/41/3 17/44/3
f  17/44/3 19/46/3 23/45/3
f  24/47/3 23/45/3 19/46/3
f  19/46/3 20/48/3 24/47/3
f  7/10/3 24/47/3 20/48/3
f  20/48/3 9/11/3 7/10/3
f  21/49/2 12/50/2 11/51/2
f  11/51/2 22/52/2 21/49/2
f  3/53/2 21/49/2 22/52/2
f  22/52/2 23/54/2 3/53/2
f  4/55/2 3/53/2 23/54/2
f  23/54/2 24/56/2 4/55/2
f  6/6/2 4/55/2 24/56/2
f  24/56/2 7/7/2 6/6/2
f  3/57/10 2/58/10 18/59/10
f  18/59/10 21/60/10 3/57/10

