# File produced by Open Asset Import Library (http://www.assimp.sf.net)
# (assimp v3.1.193236683)

mtllib terrain_2right.mtl

# 24 vertex positions
v  0 -81.4214 -760.976
v  -201.551 -81.4214 -947.854
v  467.194 -81.4214 -947.854
v  467.194 -81.4214 -760.976
v  467.194 81.4215 -947.854
v  467.194 81.4216 -760.976
v  467.194 -81.4216 -1695.36
v  0 -81.4216 -1695.36
v  0 81.4214 -1695.36
v  467.194 81.4214 -1695.36
v  0 81.4216 -760.976
v  -201.551 81.4215 -947.854
v  467.194 81.4214 -1508.49
v  133.431 81.4214 -1508.49
v  467.194 81.4215 -1321.61
v  -3.96123 81.4215 -1321.61
v  467.194 81.4215 -1134.73
v  0 81.4215 -1134.73
v  467.194 -81.4215 -1508.49
v  467.194 -81.4215 -1321.61
v  467.194 -81.4215 -1134.73
v  133.431 -81.4215 -1508.49
v  -3.96123 -81.4215 -1321.61
v  0 -81.4215 -1134.73

# 57 UV coordinates
vt 0.54104 0.5 0
vt 0.637037 0.6 0
vt 0.318519 0.6 0
vt 0.318519 0.5 0
vt 0 0 0
vt 0.0890085 0 0
vt 0.0890085 0.5 0
vt 0 0.5 0
vt 0.986082 0.5 0
vt 0.763561 0.5 0
vt 0.763561 5.96046e-08 0
vt 0.986082 0 0
vt 0.667563 0.5 0
vt 0.445042 0.5 0
vt 0.445042 2.98023e-08 0
vt 0.667563 0 0
vt 7.95797e-08 1 0
vt 3.97899e-08 0.9 0
vt 0.318519 0.9 0
vt 0.222521 1 0
vt 2.65266e-08 0.6 0
vt 0 0.5 0
vt 0.222521 0.5 0
vt 0.158969 0.6 0
vt 2.65266e-08 0.7 0
vt 0.224408 0.7 0
vt 2.65266e-08 0.8 0
vt 0.222521 0.8 0
vt 0.356034 0 0
vt 0.445042 0 0
vt 0.445042 0.5 0
vt 0.356034 0.5 0
vt 0.267025 0 0
vt 0.267025 0.5 0
vt 0.178017 0 0
vt 0.178017 0.5 0
vt 0.477488 0.9 0
vt 0.54104 1 0
vt 0.318519 1 0
vt 0.318519 0.9 0
vt 0.542926 0.8 0
vt 0.318519 0.8 0
vt 0.54104 0.7 0
vt 0.318519 0.7 0
vt 0.763561 0.5 0
vt 0.763561 0 0
vt 1 1 0
vt 0.904003 1 0
vt 0.904003 0.5 0
vt 1 0.5 0
vt 0.726066 1 0
vt 0.637037 1 0
vt 0.637037 0.5 0
vt 0.726066 0.5 0
vt 0.813667 1 0
vt 0.813667 0.5 0
vt 0.904002 0.5 0

# 10 vertex normals
vn 0 -1 1.62921e-07
vn 1 0 0
vn 0 -1.62921e-07 -1
vn 0 1.62921e-07 1
vn 0 1 -1.62921e-07
vn -0.679909 1.19469e-07 0.733296
vn -0.679909 -1.19469e-07 -0.733296
vn -0.999775 3.45264e-09 0.0211921
vn -0.805688 -9.65045e-08 -0.592341
vn -0.813843 9.46708e-08 0.581085

# Mesh 'Cube.002_Cube.002' with 44 faces
g Cube.002_Cube.002
usemtl Material.002
f  1/1/1 2/2/1 3/3/1
f  3/3/1 4/4/1 1/1/1
f  4/5/2 3/6/2 5/7/2
f  5/7/2 6/8/2 4/5/2
f  7/9/3 8/10/3 9/11/3
f  9/11/3 10/12/3 7/9/3
f  1/13/4 4/14/4 6/15/4
f  6/15/4 11/16/4 1/13/4
f  6/17/5 5/18/5 12/19/5
f  12/19/5 11/20/5 6/17/5
f  13/21/5 10/22/5 9/23/5
f  9/23/5 14/24/5 13/21/5
f  15/25/5 13/21/5 14/24/5
f  14/24/5 16/26/5 15/25/5
f  17/27/5 15/25/5 16/26/5
f  16/26/5 18/28/5 17/27/5
f  5/18/5 17/27/5 18/28/5
f  18/28/5 12/19/5 5/18/5
f  19/29/2 7/30/2 10/31/2
f  10/31/2 13/32/2 19/29/2
f  20/33/2 19/29/2 13/32/2
f  13/32/2 15/34/2 20/33/2
f  21/35/2 20/33/2 15/34/2
f  15/34/2 17/36/2 21/35/2
f  3/6/2 21/35/2 17/36/2
f  17/36/2 5/7/2 3/6/2
f  22/37/1 8/38/1 7/39/1
f  7/39/1 19/40/1 22/37/1
f  23/41/1 22/37/1 19/40/1
f  19/40/1 20/42/1 23/41/1
f  24/43/1 23/41/1 20/42/1
f  20/42/1 21/44/1 24/43/1
f  2/2/1 24/43/1 21/44/1
f  21/44/1 3/3/1 2/2/1
f  2/45/6 1/13/6 11/16/6
f  11/16/6 12/46/6 2/45/6
f  24/47/7 2/48/7 12/49/7
f  12/49/7 18/50/7 24/47/7
f  23/51/8 24/52/8 18/53/8
f  18/53/8 16/54/8 23/51/8
f  22/55/9 23/51/9 16/54/9
f  16/54/9 14/56/9 22/55/9
f  14/56/10 9/57/10 8/48/10
f  8/48/10 22/55/10 14/56/10

