# File produced by Open Asset Import Library (http://www.assimp.sf.net)
# (assimp v3.1.193236683)

mtllib terrain_3right.mtl

# 24 vertex positions
v  0 -81.4214 -1902.1
v  144.143 -81.4214 -2088.98
v  467.194 -81.4214 -2088.98
v  467.194 -81.4214 -1902.1
v  467.194 81.4215 -2088.98
v  467.194 81.4216 -1902.1
v  467.194 -81.4216 -2836.49
v  0 -81.4216 -2836.49
v  0 81.4214 -2836.49
v  467.194 81.4214 -2836.49
v  0 81.4216 -1902.1
v  144.143 81.4215 -2088.98
v  467.194 81.4214 -2649.61
v  133.431 81.4214 -2649.61
v  467.194 81.4215 -2462.73
v  137.416 81.4215 -2462.73
v  467.194 81.4215 -2275.85
v  141.377 81.4215 -2275.85
v  467.194 -81.4215 -2649.61
v  467.194 -81.4215 -2462.73
v  467.194 -81.4215 -2275.85
v  133.431 -81.4215 -2649.61
v  137.416 -81.4215 -2462.73
v  141.377 -81.4215 -2275.85

# 54 UV coordinates
vt 0.799985 0.5 0
vt 0.738275 0.6 0
vt 0.599971 0.6 0
vt 0.599971 0.5 0
vt 0 0 0
vt 0.0800058 0 0
vt 0.0800058 0.5 0
vt 0 0.5 0
vt 0.200015 1 0
vt 9.53744e-08 1 0
vt 0 0.5 0
vt 0.200015 0.5 0
vt 1 0.5 0
vt 0.799985 0.5 0
vt 0.799985 2.98023e-08 0
vt 1 0 0
vt 0.799985 1 0
vt 0.799985 0.9 0
vt 0.93829 0.9 0
vt 1 1 0
vt 0.799985 0.6 0
vt 1 0.5 0
vt 0.942876 0.6 0
vt 0.799985 0.7 0
vt 0.94117 0.7 0
vt 0.799985 0.8 0
vt 0.939474 0.8 0
vt 0.320023 0 0
vt 0.400029 0 0
vt 0.400029 0.5 0
vt 0.320023 0.5 0
vt 0.240018 0 0
vt 0.240017 0.5 0
vt 0.160012 0 0
vt 0.160012 0.5 0
vt 0.742861 0.9 0
vt 0.599971 1 0
vt 0.599971 0.9 0
vt 0.741155 0.8 0
vt 0.599971 0.8 0
vt 0.739459 0.7 0
vt 0.599971 0.7 0
vt 0.718903 5.96046e-08 0
vt 0.799985 0 0
vt 0.799985 0.5 0
vt 0.718903 0.5 0
vt 0.638879 0.5 0
vt 0.638879 8.94069e-08 0
vt 0.558855 0.5 0
vt 0.558855 5.96046e-08 0
vt 0.478842 0.5 0
vt 0.478841 5.96046e-08 0
vt 0.400029 0.5 0
vt 0.400029 1.19209e-07 0

# 10 vertex normals
vn 0 -1 1.62921e-07
vn 1 0 0
vn 0 -1.62921e-07 -1
vn 0 1.62921e-07 1
vn 0 1 -1.62921e-07
vn -0.813843 9.46708e-08 0.581085
vn -0.999773 3.47333e-09 0.0213192
vn -0.999775 3.45264e-09 0.0211921
vn -0.99989 2.41097e-09 0.0147984
vn -0.791823 -9.9504e-08 -0.610751

# Mesh 'Cube.004_Cube.004' with 44 faces
g Cube.004_Cube.004
usemtl Material.004
f  1/1/1 2/2/1 3/3/1
f  3/3/1 4/4/1 1/1/1
f  4/5/2 3/6/2 5/7/2
f  5/7/2 6/8/2 4/5/2
f  7/9/3 8/10/3 9/11/3
f  9/11/3 10/12/3 7/9/3
f  1/13/4 4/14/4 6/15/4
f  6/15/4 11/16/4 1/13/4
f  6/17/5 5/18/5 12/19/5
f  12/19/5 11/20/5 6/17/5
f  13/21/5 10/1/5 9/22/5
f  9/22/5 14/23/5 13/21/5
f  15/24/5 13/21/5 14/23/5
f  14/23/5 16/25/5 15/24/5
f  17/26/5 15/24/5 16/25/5
f  16/25/5 18/27/5 17/26/5
f  5/18/5 17/26/5 18/27/5
f  18/27/5 12/19/5 5/18/5
f  19/28/2 7/29/2 10/30/2
f  10/30/2 13/31/2 19/28/2
f  20/32/2 19/28/2 13/31/2
f  13/31/2 15/33/2 20/32/2
f  21/34/2 20/32/2 15/33/2
f  15/33/2 17/35/2 21/34/2
f  3/6/2 21/34/2 17/35/2
f  17/35/2 5/7/2 3/6/2
f  22/36/1 8/17/1 7/37/1
f  7/37/1 19/38/1 22/36/1
f  23/39/1 22/36/1 19/38/1
f  19/38/1 20/40/1 23/39/1
f  24/41/1 23/39/1 20/40/1
f  20/40/1 21/42/1 24/41/1
f  2/2/1 24/41/1 21/42/1
f  21/42/1 3/3/1 2/2/1
f  14/43/6 9/44/6 8/45/6
f  8/45/6 22/46/6 14/43/6
f  22/46/7 23/47/7 16/48/7
f  16/48/7 14/43/7 22/46/7
f  23/47/8 24/49/8 18/50/8
f  18/50/8 16/48/8 23/47/8
f  24/49/9 2/51/9 12/52/9
f  12/52/9 18/50/9 24/49/9
f  2/51/10 1/53/10 11/54/10
f  11/54/10 12/52/10 2/51/10

